<?xml version="1.0" encoding="UTF-8" standalone="no"?>
<!-- Generator: Adobe Illustrator 15.1.0, SVG Export Plug-In . SVG Version: 6.00 Build 0)  -->

<svg
   xmlns:dc="http://purl.org/dc/elements/1.1/"
   xmlns:cc="http://creativecommons.org/ns#"
   xmlns:rdf="http://www.w3.org/1999/02/22-rdf-syntax-ns#"
   xmlns:svg="http://www.w3.org/2000/svg"
   xmlns="http://www.w3.org/2000/svg"
   xmlns:sodipodi="http://sodipodi.sourceforge.net/DTD/sodipodi-0.dtd"
   xmlns:inkscape="http://www.inkscape.org/namespaces/inkscape"
   version="1.1"
   id="Layer_1"
   x="0px"
   y="0px"
   width="55"
   height="55"
   viewBox="0 0 55 55"
   enable-background="new 0 0 100 100"
   xml:space="preserve"
   inkscape:version="0.48.4 r9939"
   sodipodi:docname="Cloud-Download.svg"><metadata
     id="metadata2989"><rdf:RDF><cc:Work
         rdf:about=""><dc:format>image/svg+xml</dc:format><dc:type
           rdf:resource="http://purl.org/dc/dcmitype/StillImage" /></cc:Work></rdf:RDF></metadata><defs
     id="defs2987" /><sodipodi:namedview
     pagecolor="#ffffff"
     bordercolor="#666666"
     borderopacity="1"
     objecttolerance="10"
     gridtolerance="10"
     guidetolerance="10"
     inkscape:pageopacity="0"
     inkscape:pageshadow="2"
     inkscape:window-width="1920"
     inkscape:window-height="1056"
     id="namedview2985"
     showgrid="false"
     inkscape:zoom="2.36"
     inkscape:cx="-0.42372881"
     inkscape:cy="50"
     inkscape:window-x="1366"
     inkscape:window-y="24"
     inkscape:window-maximized="1"
     inkscape:current-layer="Layer_1" /><path
     clip-rule="evenodd"
     d="m 37.499,42.842125 c -0.518,0 -1.287,0 -2.217,0 l 2.101,-2.102 c 0.589,-0.59 1.029,-1.271 1.322,-1.998 3.844,-0.584 6.793,-3.893 6.793,-7.898 0,-4.418 -3.581,-8 -7.999,-8 -1.549,0 -2.982,0.458 -4.207,1.221 -0.139,-0.559 -0.358,-1.08 -0.641,-1.564 -1.738,-4.475 -6.061,-7.655 -11.15,-7.655 -6.627,0 -11.9979998,5.371 -11.9979998,11.998 0,4.612 2.6039998,8.61 6.4179998,10.618 0.195,1.201 0.74,2.354 1.666,3.279 l 1.971,1.971 c -7.917,-0.959 -14.0549998,-7.691 -14.0549998,-15.868 0,-8.835 7.1619998,-15.998 15.9979998,-15.998 6.004,0 11.229,3.312 13.965,8.204 0.664,-0.114 1.336,-0.205 2.033,-0.205 6.627,0 11.998,5.372 11.998,12 0,6.624 -5.371,11.997 -11.998,11.997 z m -14.256,-7.758 2.243,2.242 v -11.827 c 0,-1.104 0.895,-1.999 1.999,-1.999 1.104,0 2,0.895 2,1.999 v 11.827 l 2.242,-2.242 c 0.78,-0.781 2.048,-0.781 2.828,0 0.78,0.781 0.78,2.047 0,2.828 l -5.656,5.656 c -0.78,0.781 -2.047,0.781 -2.828,0 l -5.655,-5.656 c -0.781,-0.781 -0.781,-2.047 0,-2.828 0.78,-0.781 2.046,-0.781 2.827,0 z"
     id="path2983"
     inkscape:connector-curvature="0"
     style="fill:#231f20;fill-rule:evenodd" /></svg>