<?xml version="1.0" encoding="UTF-8" standalone="no"?>
<!-- Generator: Adobe Illustrator 15.1.0, SVG Export Plug-In . SVG Version: 6.00 Build 0)  -->

<svg
   xmlns:dc="http://purl.org/dc/elements/1.1/"
   xmlns:cc="http://creativecommons.org/ns#"
   xmlns:rdf="http://www.w3.org/1999/02/22-rdf-syntax-ns#"
   xmlns:svg="http://www.w3.org/2000/svg"
   xmlns="http://www.w3.org/2000/svg"
   xmlns:sodipodi="http://sodipodi.sourceforge.net/DTD/sodipodi-0.dtd"
   xmlns:inkscape="http://www.inkscape.org/namespaces/inkscape"
   version="1.1"
   id="Layer_1"
   x="0px"
   y="0px"
   width="55"
   height="55"
   viewBox="0 0 55 55"
   enable-background="new 0 0 100 100"
   xml:space="preserve"
   inkscape:version="0.48.4 r9939"
   sodipodi:docname="Cloud-Hail-Sun-Alt.svg"><metadata
     id="metadata3020"><rdf:RDF><cc:Work
         rdf:about=""><dc:format>image/svg+xml</dc:format><dc:type
           rdf:resource="http://purl.org/dc/dcmitype/StillImage" /></cc:Work></rdf:RDF></metadata><defs
     id="defs3018" /><sodipodi:namedview
     pagecolor="#ffffff"
     bordercolor="#666666"
     borderopacity="1"
     objecttolerance="10"
     gridtolerance="10"
     guidetolerance="10"
     inkscape:pageopacity="0"
     inkscape:pageshadow="2"
     inkscape:window-width="1920"
     inkscape:window-height="1056"
     id="namedview3016"
     showgrid="false"
     inkscape:zoom="2.36"
     inkscape:cx="-0.42372881"
     inkscape:cy="50"
     inkscape:window-x="1366"
     inkscape:window-y="24"
     inkscape:window-maximized="1"
     inkscape:current-layer="Layer_1" /><path
     clip-rule="evenodd"
     d="m 48.738141,23.252287 h -3.39851 c -0.937989,0 -1.698405,-0.760417 -1.698405,-1.699256 0,-0.937989 0.761266,-1.699255 1.698405,-1.699255 h 3.39851 c 0.937989,0 1.699257,0.761266 1.699257,1.699255 0,0.938839 -0.760418,1.699256 -1.699257,1.699256 z M 42.062618,11.942044 c -0.662711,0.663559 -1.739188,0.663559 -2.402748,0 -0.662708,-0.66356 -0.662708,-1.739188 0,-2.4027474 l 2.402748,-2.4027469 c 0.663558,-0.6635592 1.740037,-0.6635592 2.402746,0 0.663559,0.6635591 0.663559,1.7391877 0,2.4027469 l -2.402746,2.4027474 z m -2.504703,13.260138 0,0 c 1.486849,1.770624 2.384055,4.052724 2.384055,6.544682 0,4.437605 -2.839456,8.200606 -6.796172,9.603341 v -3.722219 c 2.029762,-1.176734 3.398511,-3.367074 3.398511,-5.881122 0,-3.751956 -3.043365,-6.795322 -6.797021,-6.795322 -1.359404,0 -2.618553,0.407821 -3.681437,1.096869 -1.045891,-4.51662 -5.075675,-7.89389 -9.910906,-7.89389 -5.629632,0 -10.193832,4.565049 -10.193832,10.195532 0,1.192877 0.2141062,2.334776 0.5921905,3.396811 l 0,0 c 0.5777468,1.622789 1.5480215,3.058659 2.8063205,4.185266 v 4.176769 C 8.2499864,38.306839 5.9279541,35.310202 5.0069578,31.746864 4.7248814,30.66019 4.5626025,29.525088 4.5626025,28.350053 c 0,-7.506461 6.0858825,-13.593193 13.5923425,-13.593193 1.336464,0 2.625349,0.197114 3.843715,0.556506 1.864933,-2.402747 4.773208,-3.954167 8.050223,-3.954167 5.629633,0 10.194682,4.56335 10.194682,10.193832 0,1.287186 -0.248941,2.514049 -0.685649,3.649151 z M 30.048883,14.75686 c -1.879377,0 -3.58118,0.762966 -4.811442,1.997475 1.988978,1.219215 3.641504,2.932914 4.782554,4.97287 0.564154,-0.09601 1.136802,-0.174174 1.727293,-0.174174 1.806308,0 3.499616,0.474942 4.970323,1.297382 l 0,0 c 0.08241,-0.419716 0.127444,-0.853026 0.127444,-1.297382 0,-3.753654 -3.043367,-6.796171 -6.796172,-6.796171 z m 0,-6.7961715 c -0.93799,0 -1.699256,-0.7604168 -1.699256,-1.6992553 V 2.8637723 c 0,-0.9379889 0.761266,-1.6992553 1.699256,-1.6992553 0.937989,0 1.698405,0.7612664 1.698405,1.6992553 v 3.3976609 c 0,0.9388385 -0.760417,1.6992553 -1.698405,1.6992553 z M 18.034298,11.942044 15.631552,9.5392966 c -0.66271,-0.6635592 -0.66271,-1.7391878 0,-2.4027469 0.663558,-0.6635592 1.740037,-0.6635592 2.402746,0 l 2.402747,2.4027469 c 0.663559,0.6635594 0.663559,1.7391874 0,2.4027474 -0.66271,0.663559 -1.738338,0.663559 -2.402747,0 z M 7.1114854,47.88809 c 0.9388385,0 1.6992553,0.761266 1.6992553,1.699255 0,0.938838 -0.7604168,1.699255 -1.6992553,1.699255 -0.9379889,0 -1.6992553,-0.760417 -1.6992553,-1.699255 0,-0.937989 0.7612664,-1.699255 1.6992553,-1.699255 z M 15.606913,33.446119 c 0,-0.937989 -0.08836,-1.699255 0.849626,-1.699255 l 0,0 c 0.937989,0 0.849628,0.761266 0.849628,1.699255 v 20.389364 h -1.699254 l 0,0 0,0 c 0,-1.876827 -1.520835,-3.39851 -3.397662,-3.39851 v -1.699256 c 1.310976,0 2.494507,0.509777 3.397662,1.322871 V 33.446119 z m 7.645798,11.893088 c -0.937989,0 -0.849628,-0.760417 -0.849628,-1.697556 V 36.84463 c 0,-0.937989 -0.08836,-1.699256 0.849628,-1.699256 0.93799,0 0.849628,0.761267 0.849628,1.699256 v 6.797021 c 0,0.937139 0.08836,1.697556 -0.849628,1.697556 z m 0,3.39851 c 0.93799,0 1.699255,0.761267 1.699255,1.699256 0,0.937988 -0.761265,1.699255 -1.699255,1.699255 -0.937989,0 -1.699255,-0.761267 -1.699255,-1.699255 0,-0.937989 0.760417,-1.699256 1.699255,-1.699256 z m 6.796172,-16.990853 0,0 c 0.937989,0 0.849627,0.761266 0.849627,1.699255 v 15.306892 c 1.548871,-2.067994 4.012791,-3.413804 6.796172,-3.413804 v 1.699255 c -3.753656,0 -6.796172,3.043366 -6.796172,6.797021 h -1.699255 c 0,-0.231948 0.01699,-0.457949 0.03399,-0.685649 -0.04503,-0.283776 -0.03399,-0.632123 -0.03399,-1.013606 V 33.446119 c 0,-0.937989 -0.08836,-1.699255 0.849627,-1.699255 z m 12.742716,11.894787 c 0.937987,0 1.698404,0.760416 1.698404,1.697556 0,0.938838 -0.760416,1.699255 -1.698404,1.699255 -0.937989,0 -1.699257,-0.760417 -1.699257,-1.699255 0,-0.937989 0.761268,-1.697556 1.699257,-1.697556 z"
     id="path3014"
     inkscape:connector-curvature="0"
     style="fill-rule:evenodd" /></svg>