<?xml version="1.0" encoding="UTF-8" standalone="no"?>
<!-- Generator: Adobe Illustrator 15.1.0, SVG Export Plug-In . SVG Version: 6.00 Build 0)  -->

<svg
   xmlns:dc="http://purl.org/dc/elements/1.1/"
   xmlns:cc="http://creativecommons.org/ns#"
   xmlns:rdf="http://www.w3.org/1999/02/22-rdf-syntax-ns#"
   xmlns:svg="http://www.w3.org/2000/svg"
   xmlns="http://www.w3.org/2000/svg"
   xmlns:sodipodi="http://sodipodi.sourceforge.net/DTD/sodipodi-0.dtd"
   xmlns:inkscape="http://www.inkscape.org/namespaces/inkscape"
   version="1.1"
   id="Layer_1"
   x="0px"
   y="0px"
   width="55"
   height="55"
   viewBox="0 0 55 55"
   enable-background="new 0 0 100 100"
   xml:space="preserve"
   inkscape:version="0.48.4 r9939"
   sodipodi:docname="Cloud-Upload.svg"><metadata
     id="metadata3011"><rdf:RDF><cc:Work
         rdf:about=""><dc:format>image/svg+xml</dc:format><dc:type
           rdf:resource="http://purl.org/dc/dcmitype/StillImage" /></cc:Work></rdf:RDF></metadata><defs
     id="defs3009" /><sodipodi:namedview
     pagecolor="#ffffff"
     bordercolor="#666666"
     borderopacity="1"
     objecttolerance="10"
     gridtolerance="10"
     guidetolerance="10"
     inkscape:pageopacity="0"
     inkscape:pageshadow="2"
     inkscape:window-width="640"
     inkscape:window-height="480"
     id="namedview3007"
     showgrid="false"
     inkscape:zoom="2.36"
     inkscape:cx="-0.42372881"
     inkscape:cy="50"
     inkscape:window-x="0"
     inkscape:window-y="336"
     inkscape:window-maximized="0"
     inkscape:current-layer="Layer_1" /><path
     clip-rule="evenodd"
     d="m 37.5,42.827 c -0.832,0 -2.324,0 -4.081,0 0.024,-0.219 0.065,-0.432 0.065,-0.656 v -3.344 c 1.681,0 3.127,0 4.016,0 4.418,0 7.999,-3.582 7.999,-7.998 0,-4.418 -3.581,-8 -7.999,-8 -1.23,0 -2.389,0.289 -3.428,0.788 L 32.454,21.999 C 30.598,17.782 26.406,14.83 21.502,14.83 c -6.627,0 -11.9980001,5.371 -11.9980001,11.998 0,6.622 5.3630001,11.989 11.9820001,11.999 v 3.344 c 0,0.225 0.042,0.438 0.066,0.656 -0.016,0 -0.035,0 -0.051,0 -8.836,0 -15.9980001,-7.162 -15.9980001,-15.999 0,-8.835 7.1620001,-15.998 15.9980001,-15.998 6.004,0 11.229,3.312 13.965,8.204 0.664,-0.114 1.337,-0.205 2.033,-0.205 6.627,0 11.998,5.372 11.998,12 10e-4,6.625 -5.37,11.998 -11.997,11.998 z M 20.416,32.584 c -0.781,-0.779 -0.781,-2.047 0,-2.826 l 5.656,-5.657 c 0.78,-0.781 2.047,-0.781 2.828,0 l 5.655,5.657 c 0.781,0.779 0.781,2.047 0,2.826 -0.78,0.781 -2.047,0.781 -2.827,0 L 29.485,30.342 V 42.17 c 0,1.104 -0.896,2 -1.999,2 -1.105,0 -2,-0.896 -2,-2 V 30.342 l -2.242,2.242 c -0.781,0.782 -2.047,0.782 -2.828,0 z"
     id="path3005"
     inkscape:connector-curvature="0"
     style="fill:#231f20;fill-rule:evenodd" /></svg>