<?xml version="1.0" encoding="UTF-8" standalone="no"?>
<!-- Generator: Adobe Illustrator 15.1.0, SVG Export Plug-In . SVG Version: 6.00 Build 0)  -->

<svg
   xmlns:dc="http://purl.org/dc/elements/1.1/"
   xmlns:cc="http://creativecommons.org/ns#"
   xmlns:rdf="http://www.w3.org/1999/02/22-rdf-syntax-ns#"
   xmlns:svg="http://www.w3.org/2000/svg"
   xmlns="http://www.w3.org/2000/svg"
   xmlns:sodipodi="http://sodipodi.sourceforge.net/DTD/sodipodi-0.dtd"
   xmlns:inkscape="http://www.inkscape.org/namespaces/inkscape"
   version="1.1"
   id="Layer_1"
   x="0px"
   y="0px"
   width="55"
   height="55"
   viewBox="0 0 55 55"
   enable-background="new 0 0 100 100"
   xml:space="preserve"
   inkscape:version="0.48.4 r9939"
   sodipodi:docname="Cloud-Rain-Sun.svg"><metadata
     id="metadata3015"><rdf:RDF><cc:Work
         rdf:about=""><dc:format>image/svg+xml</dc:format><dc:type
           rdf:resource="http://purl.org/dc/dcmitype/StillImage" /></cc:Work></rdf:RDF></metadata><defs
     id="defs3013" /><sodipodi:namedview
     pagecolor="#ffffff"
     bordercolor="#666666"
     borderopacity="1"
     objecttolerance="10"
     gridtolerance="10"
     guidetolerance="10"
     inkscape:pageopacity="0"
     inkscape:pageshadow="2"
     inkscape:window-width="1920"
     inkscape:window-height="1056"
     id="namedview3011"
     showgrid="false"
     inkscape:zoom="2.36"
     inkscape:cx="-0.42372881"
     inkscape:cy="50"
     inkscape:window-x="1366"
     inkscape:window-y="24"
     inkscape:window-maximized="1"
     inkscape:current-layer="Layer_1" /><path
     clip-rule="evenodd"
     d="m 49.671707,23.951586 h -3.54797 c -0.979239,0 -1.773985,-0.793858 -1.773985,-1.773985 0,-0.979239 0.794746,-1.773985 1.773985,-1.773985 h 3.54797 c 0.97924,0 1.773985,0.794746 1.773985,1.773985 0,0.981014 -0.794745,1.773985 -1.773985,1.773985 z m -6.9691,-11.807643 c -0.692741,0.692741 -1.815673,0.692741 -2.508414,0 -0.692741,-0.691854 -0.692741,-1.815674 0,-2.5084148 l 2.508414,-2.5084147 c 0.692742,-0.6918541 1.815674,-0.6918541 2.508415,0 0.692741,0.6927412 0.692741,1.8165606 0,2.5084147 l -2.508415,2.5084148 z m -2.613966,13.843291 0,0 c 1.552236,1.848492 2.488014,4.230954 2.488014,6.83339 0,4.632761 -2.964329,8.561251 -7.094166,10.023902 v -3.885914 c 2.119025,-1.226711 3.54797,-3.513377 3.54797,-6.137988 0,-3.917846 -3.177207,-7.095053 -7.09594,-7.095053 -1.419188,0 -2.735485,0.425756 -3.844225,1.145107 -1.091001,-4.716139 -5.298006,-8.24016 -10.345881,-8.24016 -5.878099,0 -10.6421351,4.764924 -10.6421351,10.642136 0,3.148823 1.3757253,5.967685 3.5479701,7.916408 v 4.360455 c -4.2371633,-2.455195 -7.09594,-7.026755 -7.09594,-12.276863 0,-7.836578 6.35264,-14.189219 14.190105,-14.189219 1.394353,0 2.740807,0.204896 4.011867,0.580094 1.946949,-2.507528 4.982237,-4.128063 8.404254,-4.128063 5.878099,0 10.642136,4.764036 10.642136,10.642135 -8.87e-4,1.344681 -0.259002,2.625498 -0.714029,3.809633 z M 30.159647,15.083435 c -1.96114,0 -3.738673,0.79652 -5.022151,2.084433 2.075562,1.272834 3.800762,3.061898 4.99288,5.192454 0.588963,-0.10023 1.186796,-0.181834 1.803256,-0.181834 1.884859,0 3.653522,0.495829 5.188906,1.354438 l 0,0 c 0.08515,-0.438175 0.133049,-0.890541 0.133049,-1.354438 0,-3.91962 -3.177207,-7.095053 -7.09594,-7.095053 z m 0,-7.0959388 c -0.97924,0 -1.773985,-0.7938582 -1.773985,-1.7739849 V 2.6664284 c 0,-0.9792396 0.794745,-1.7730979 1.773985,-1.7730979 0.980127,0 1.773985,0.7938583 1.773985,1.7730979 v 3.5470829 c 0,0.9810137 -0.792971,1.7739849 -1.773985,1.7739849 z M 17.617574,12.143943 15.109159,9.6355282 c -0.690967,-0.6918541 -0.690967,-1.8156735 0,-2.5084147 0.692741,-0.6918541 1.817447,-0.6918541 2.508415,0 l 2.508414,2.5084147 c 0.692741,0.6927408 0.692741,1.8165608 0,2.5084148 -0.692741,0.692741 -1.815673,0.692741 -2.508414,0 z m -1.648032,20.676681 c 0.980126,0 1.773984,0.794745 1.773984,1.773985 v 14.190105 c 0,0.980127 -0.793858,1.773985 -1.773984,1.773985 -0.97924,0 -1.773985,-0.793858 -1.773985,-1.773985 V 34.594609 c 0,-0.97924 0.795632,-1.773985 1.773985,-1.773985 z m 7.095939,3.54797 c 0.97924,0 1.773985,0.793858 1.773985,1.773985 v 14.190105 c 0,0.97924 -0.794745,1.773986 -1.773985,1.773986 -0.980126,0 -1.773985,-0.794745 -1.773985,-1.773986 V 38.142579 c 0,-0.981014 0.793859,-1.773985 1.773985,-1.773985 z m 7.094166,-3.54797 c 0.980127,0 1.773985,0.794745 1.773985,1.773985 v 14.190105 c 0,0.980127 -0.793858,1.773985 -1.773985,1.773985 -0.97924,0 -1.773985,-0.793858 -1.773985,-1.773985 V 34.594609 c 0,-0.97924 0.795632,-1.773985 1.773985,-1.773985 z"
     id="path3009"
     inkscape:connector-curvature="0"
     style="fill-rule:evenodd" /></svg>