<?xml version="1.0" encoding="UTF-8" standalone="no"?>
<!-- Generator: Adobe Illustrator 15.1.0, SVG Export Plug-In . SVG Version: 6.00 Build 0)  -->

<svg
   xmlns:dc="http://purl.org/dc/elements/1.1/"
   xmlns:cc="http://creativecommons.org/ns#"
   xmlns:rdf="http://www.w3.org/1999/02/22-rdf-syntax-ns#"
   xmlns:svg="http://www.w3.org/2000/svg"
   xmlns="http://www.w3.org/2000/svg"
   xmlns:sodipodi="http://sodipodi.sourceforge.net/DTD/sodipodi-0.dtd"
   xmlns:inkscape="http://www.inkscape.org/namespaces/inkscape"
   version="1.1"
   id="Layer_1"
   x="0px"
   y="0px"
   width="55"
   height="55"
   viewBox="0 0 55 55"
   enable-background="new 0 0 100 100"
   xml:space="preserve"
   inkscape:version="0.48.4 r9939"
   sodipodi:docname="Cloud-Wind-Sun.svg"><metadata
     id="metadata2993"><rdf:RDF><cc:Work
         rdf:about=""><dc:format>image/svg+xml</dc:format><dc:type
           rdf:resource="http://purl.org/dc/dcmitype/StillImage" /></cc:Work></rdf:RDF></metadata><defs
     id="defs2991" /><sodipodi:namedview
     pagecolor="#ffffff"
     bordercolor="#666666"
     borderopacity="1"
     objecttolerance="10"
     gridtolerance="10"
     guidetolerance="10"
     inkscape:pageopacity="0"
     inkscape:pageshadow="2"
     inkscape:window-width="640"
     inkscape:window-height="480"
     id="namedview2989"
     showgrid="false"
     inkscape:zoom="2.36"
     inkscape:cx="-0.42372881"
     inkscape:cy="50"
     inkscape:window-x="0"
     inkscape:window-y="336"
     inkscape:window-maximized="0"
     inkscape:current-layer="Layer_1" /><path
     clip-rule="evenodd"
     d="m 48.027552,22.573524 h -3.284869 c -0.906623,0 -1.641613,-0.735811 -1.641613,-1.642434 0,-0.906624 0.734991,-1.642434 1.641613,-1.642434 h 3.284869 c 0.906624,0 1.642434,0.73581 1.642434,1.642434 0,0.906623 -0.73499,1.642434 -1.642434,1.642434 z M 41.57607,11.640661 c -0.64137,0.641371 -1.681852,0.641371 -2.322401,0 -0.64137,-0.64137 -0.64137,-1.6810311 0,-2.3224017 L 41.57607,6.9958575 c 0.64055,-0.6413705 1.681033,-0.6413705 2.321582,0 0.64137,0.6413705 0.64137,1.6810313 0,2.3224018 L 41.57607,11.640661 z m -2.421768,12.817556 0,0 c 0.74895,0.892663 1.338583,1.921648 1.736052,3.041788 h -0.0082 c 0.17492,0.494373 0.316168,1.003527 0.410609,1.529927 -1.144776,-0.817111 -2.50389,-1.351723 -3.98126,-1.490509 -0.0082,-0.01396 -0.01807,-0.02546 -0.02628,-0.03942 h 0.0025 c -1.136565,-1.961888 -3.252841,-3.284047 -5.682822,-3.284047 -1.314769,0 -2.532634,0.394184 -3.559155,1.05937 -1.010918,-4.36559 -4.905951,-7.629106 -9.579497,-7.629106 -5.441384,0 -9.8529617,4.411578 -9.8529617,9.853783 l 0,0 c 0,5.441384 4.4115777,9.853784 9.8529617,9.853784 2.134343,0 6.695383,0 10.018848,0 h 8.046285 c 0.906624,0 1.641613,-0.735811 1.641613,-1.642435 0,-0.907444 -0.734989,-1.642434 -1.641613,-1.642434 -0.906624,0 -1.642434,-0.73581 -1.642434,-1.642434 0,-0.906623 0.73581,-1.642434 1.642434,-1.642434 0.113328,0 0.223371,0.0115 0.330129,0.03367 2.56384,0.173277 4.596352,2.285447 4.596352,4.893632 0,2.512103 -1.881408,4.579928 -4.310568,4.883778 v 0.0427 h -0.615913 -6.557418 c -3.294723,0 -9.327384,0 -11.507715,0 -0.906624,0 -1.641613,0.73581 -1.641613,1.641612 0,0.907445 0.735811,1.642435 1.641613,1.642435 h 18.065133 0.615913 v 0.04352 c 2.42916,0.303029 4.310568,2.372496 4.310568,4.883778 0,2.607364 -2.032512,4.719534 -4.596352,4.892811 -0.106758,0.02135 -0.217622,0.03367 -0.330129,0.03367 -0.906624,0 -1.642434,-0.73581 -1.642434,-1.642434 0,-0.906624 0.73581,-1.641613 1.642434,-1.641613 0.906624,0 1.641613,-0.73581 1.641613,-1.642434 0,-0.907445 -0.734989,-1.642434 -1.641613,-1.642434 H 18.467022 17.851931 v -0.0427 c -2.429982,-0.30385 -4.311389,-2.373317 -4.311389,-4.884599 0,-0.866384 0.241437,-1.668713 0.6348,-2.373317 -5.1457456,-1.780392 -8.8453285,-6.655137 -8.8453285,-12.40612 0,-7.255453 5.8815565,-13.137831 13.1370085,-13.137831 1.291775,0 2.537561,0.190523 3.715186,0.537898 1.802572,-2.322402 4.612776,-3.821945 7.781032,-3.821945 5.441384,0 9.852962,4.410757 9.852962,9.852963 0,1.244144 -0.240616,2.429981 -0.661901,3.527127 z M 29.96324,14.362174 c -1.817353,0 -3.46143,0.737453 -4.650552,1.930682 1.922469,1.178446 3.519736,2.83402 4.623452,4.807404 0.544467,-0.09362 1.097146,-0.168349 1.669534,-0.168349 1.745086,0 3.381772,0.45906 4.80412,1.253998 l 0,0 c 0.07884,-0.405681 0.122362,-0.825323 0.122362,-1.253998 0,-3.628958 -2.9416,-6.569737 -6.568916,-6.569737 z m 0,-6.5689147 c -0.906624,0 -1.642434,-0.7358105 -1.642434,-1.6424342 v -3.284047 c 0,-0.9066236 0.73581,-1.6424341 1.642434,-1.6424341 0.906624,0 1.642434,0.7358105 1.642434,1.6424341 v 3.284047 c 0,0.9066237 -0.73581,1.6424342 -1.642434,1.6424342 z M 18.350409,11.640661 16.028008,9.3182593 c -0.641371,-0.6413705 -0.641371,-1.6810313 0,-2.3224018 0.64137,-0.6413705 1.681031,-0.6413705 2.322401,0 l 2.322402,2.3224018 c 0.641371,0.6413706 0.641371,1.6810317 0,2.3224017 -0.64137,0.641371 -1.68021,0.641371 -2.322402,0 z m 22.28701,30.638787 c 0,-0.906623 0.735811,-1.641612 1.642435,-1.641612 h 2.462829 c 0.906624,0 1.642434,-0.735811 1.642434,-1.642435 0,-0.906623 -0.73581,-1.641612 -1.642434,-1.641612 -0.906623,0 -1.641613,-0.735811 -1.641613,-1.642435 0,-0.907444 0.734991,-1.642434 1.641613,-1.642434 0.114149,0 0.224193,0.0115 0.330951,0.03367 2.563839,0.173277 4.596352,2.285447 4.596352,4.892811 0,2.512103 -1.881408,4.579928 -4.31139,4.884599 v 0.04188 h -0.615913 -2.46283 c -0.906623,0 -1.642434,-0.73499 -1.642434,-1.642435 z"
     id="path2987"
     inkscape:connector-curvature="0"
     style="fill-rule:evenodd" /></svg>