<?xml version="1.0" encoding="UTF-8" standalone="no"?>
<!-- Generator: Adobe Illustrator 15.1.0, SVG Export Plug-In . SVG Version: 6.00 Build 0)  -->

<svg
   xmlns:dc="http://purl.org/dc/elements/1.1/"
   xmlns:cc="http://creativecommons.org/ns#"
   xmlns:rdf="http://www.w3.org/1999/02/22-rdf-syntax-ns#"
   xmlns:svg="http://www.w3.org/2000/svg"
   xmlns="http://www.w3.org/2000/svg"
   xmlns:sodipodi="http://sodipodi.sourceforge.net/DTD/sodipodi-0.dtd"
   xmlns:inkscape="http://www.inkscape.org/namespaces/inkscape"
   version="1.1"
   id="Layer_1"
   x="0px"
   y="0px"
   width="55"
   height="55"
   viewBox="0 0 55 55"
   enable-background="new 0 0 100 100"
   xml:space="preserve"
   inkscape:version="0.48.4 r9939"
   sodipodi:docname="Cloud-Fog-Alt.svg"><metadata
     id="metadata3020"><rdf:RDF><cc:Work
         rdf:about=""><dc:format>image/svg+xml</dc:format><dc:type
           rdf:resource="http://purl.org/dc/dcmitype/StillImage" /></cc:Work></rdf:RDF></metadata><defs
     id="defs3018" /><sodipodi:namedview
     pagecolor="#ffffff"
     bordercolor="#666666"
     borderopacity="1"
     objecttolerance="10"
     gridtolerance="10"
     guidetolerance="10"
     inkscape:pageopacity="0"
     inkscape:pageshadow="2"
     inkscape:window-width="1920"
     inkscape:window-height="1056"
     id="namedview3016"
     showgrid="false"
     inkscape:zoom="2.36"
     inkscape:cx="-0.42372881"
     inkscape:cy="50"
     inkscape:window-x="1366"
     inkscape:window-y="24"
     inkscape:window-maximized="1"
     inkscape:current-layer="Layer_1" /><path
     clip-rule="evenodd"
     d="m 6.6759998,34.499 c -0.262,-0.646 -0.473,-1.315 -0.648,-2 H 49.498 c 0,0.683999 -0.07,1.348 -0.181,2 H 6.6759998 z M 13.762,14.501 c 2.294,-1.271 4.93,-1.998999 7.738,-1.998999 2.806,0 5.436,0.729999 7.727,1.998999 H 13.762 z M 5.6409998,26.5 c 0.085,-0.682001 0.218,-1.347001 0.387,-1.999001 H 46.424 c 0.551,0.613 1.039,1.281 1.455,1.999001 H 5.6409998 z m 1.035,-3.999 c 0.281,-0.693001 0.613,-1.359 0.984,-2 H 35.342 c 0.04,0.068 0.084,0.135001 0.123,0.205001 C 36.129,20.592 36.803,20.501 37.498,20.501 c 2.451,0 4.729,0.738 6.627,2 H 6.6759998 z m 2.347,-4 c 0.58,-0.723 1.2250002,-1.388001 1.9200002,-2 h 21.122 c 0.69,0.61 1.326,1.28 1.903,2 H 9.0229998 z M 49.316,30.499 H 5.6409998 c -0.082,-0.656 -0.139,-1.32 -0.139,-1.999 H 48.8 c 0.227,0.643 0.401,1.310999 0.516,1.999 z m -0.516,6 c -0.247,0.699 -0.555,1.366999 -0.921,2 H 9.0229998 c -0.505,-0.629 -0.957,-1.299 -1.363,-2 H 48.8 z m -37.857,4 h 35.48 c -0.68,0.758 -1.447,1.433999 -2.299,1.999 H 13.762 c -1.016,-0.562 -1.954,-1.24 -2.819,-1.999 z"
     id="path3014"
     inkscape:connector-curvature="0"
     style="fill-rule:evenodd" /></svg>