<?xml version="1.0" encoding="UTF-8" standalone="no"?>
<!-- Generator: Adobe Illustrator 15.1.0, SVG Export Plug-In . SVG Version: 6.00 Build 0)  -->

<svg
   xmlns:dc="http://purl.org/dc/elements/1.1/"
   xmlns:cc="http://creativecommons.org/ns#"
   xmlns:rdf="http://www.w3.org/1999/02/22-rdf-syntax-ns#"
   xmlns:svg="http://www.w3.org/2000/svg"
   xmlns="http://www.w3.org/2000/svg"
   xmlns:sodipodi="http://sodipodi.sourceforge.net/DTD/sodipodi-0.dtd"
   xmlns:inkscape="http://www.inkscape.org/namespaces/inkscape"
   version="1.1"
   id="Layer_1"
   x="0px"
   y="0px"
   width="55"
   height="55"
   viewBox="0 0 55 55"
   enable-background="new 0 0 100 100"
   xml:space="preserve"
   inkscape:version="0.48.4 r9939"
   sodipodi:docname="Cloud-Lightning-Sun.svg"><metadata
     id="metadata3002"><rdf:RDF><cc:Work
         rdf:about=""><dc:format>image/svg+xml</dc:format><dc:type
           rdf:resource="http://purl.org/dc/dcmitype/StillImage" /></cc:Work></rdf:RDF></metadata><defs
     id="defs3000" /><sodipodi:namedview
     pagecolor="#ffffff"
     bordercolor="#666666"
     borderopacity="1"
     objecttolerance="10"
     gridtolerance="10"
     guidetolerance="10"
     inkscape:pageopacity="0"
     inkscape:pageshadow="2"
     inkscape:window-width="1920"
     inkscape:window-height="1056"
     id="namedview2998"
     showgrid="false"
     inkscape:zoom="2.36"
     inkscape:cx="-0.42372881"
     inkscape:cy="50"
     inkscape:window-x="1366"
     inkscape:window-y="24"
     inkscape:window-maximized="1"
     inkscape:current-layer="Layer_1" /><path
     clip-rule="evenodd"
     d="m 49.749642,23.939043 h -3.559623 c -0.9827,0 -1.780256,-0.796666 -1.780256,-1.780257 0,-0.982701 0.797556,-1.780257 1.780256,-1.780257 h 3.559623 c 0.982701,0 1.780256,0.797556 1.780256,1.780257 0,0.984482 -0.796664,1.780257 -1.780256,1.780257 z M 42.756796,12.089657 c -0.69519,0.69519 -1.822092,0.69519 -2.517282,0 -0.695191,-0.69519 -0.695191,-1.822092 0,-2.5172816 l 2.517282,-2.5172823 c 0.69519,-0.6951901 1.822092,-0.6951901 2.517282,0 0.694301,0.6951901 0.694301,1.8220922 0,2.5172823 l -2.517282,2.5172816 z m -2.624098,13.89223 0,0 c 1.194552,1.424204 2.021482,3.164405 2.343708,5.07729 h -0.0071 c 0.09702,0.580364 0.160223,1.173189 0.160223,1.780256 0,5.898879 -4.78177,10.681538 -10.679758,10.681538 -0.249235,0 -0.577692,0 -0.945316,0 l 3.190219,-3.927245 c 2.831497,-0.940866 4.876122,-3.60769 4.876122,-6.754293 0,-0.615078 -0.08723,-1.209684 -0.234104,-1.780256 l 0,0 c -0.791323,-3.069162 -3.570303,-5.339878 -6.88603,-5.339878 -1.425095,0 -2.744265,0.427262 -3.857815,1.149155 -1.095748,-4.731921 -5.316736,-8.270181 -10.382454,-8.270181 -5.89888,0 -10.6806478,4.782659 -10.6806478,10.681538 0,0.607067 0.062309,1.199892 0.1611131,1.779366 h -0.012462 c 0.6800579,4.049193 3.6388437,7.319524 7.5109007,8.461558 l -1.20167,3.362014 C 8.2331773,41.253814 4.29258,36.660753 3.5929394,31.059177 l 0,0 c -0.072991,-0.584814 -0.1228377,-1.175859 -0.1228377,-1.779366 0,-7.865172 6.3750976,-14.24116 14.2402703,-14.24116 1.399281,0 2.749605,0.20651 4.026049,0.583034 1.953831,-2.517282 5.00074,-4.142655 8.433964,-4.142655 5.898879,0 10.680646,4.780877 10.680646,10.679756 -8.91e-4,1.349434 -0.261698,2.633889 -0.718333,3.823101 z M 30.169495,15.039542 c -1.968964,0 -3.751891,0.799335 -5.039906,2.09269 2.0829,1.277335 3.814199,3.071833 5.010532,5.20992 0.591044,-0.100584 1.1901,-0.182476 1.80963,-0.182476 1.891522,0 3.665548,0.497582 5.207249,1.359226 l 0,0 c 0.08545,-0.439723 0.132629,-0.893689 0.132629,-1.359226 0,-3.932586 -3.187549,-7.120134 -7.120134,-7.120134 z m 0,-7.1201345 c -0.982702,0 -1.780256,-0.7975547 -1.780256,-1.7802562 V 2.579529 c 0,-0.9827015 0.797554,-1.78025625 1.780256,-1.78025625 0.982701,0 1.780256,0.79755475 1.780256,1.78025625 v 3.5596223 c 0,0.9827015 -0.796666,1.7802562 -1.780256,1.7802562 z M 17.582193,12.089657 15.065801,9.5723754 c -0.69519,-0.6951901 -0.69519,-1.8220922 0,-2.5172823 0.6943,-0.6951901 1.822092,-0.6951901 2.516392,0 l 2.517282,2.5172823 c 0.69519,0.6951896 0.69519,1.8220916 0,2.5172816 -0.6943,0.69519 -1.821202,0.69519 -2.517282,0 z m 3.68691,18.96952 h 8.900392 l -5.339879,8.901281 h 6.230007 L 19.489737,54.200727 22.694198,43.520971 h -5.874845 l 4.44975,-12.461794 z"
     id="path2996"
     inkscape:connector-curvature="0"
     style="fill-rule:evenodd" /></svg>