<?xml version="1.0" encoding="UTF-8" standalone="no"?>
<!-- Generator: Adobe Illustrator 15.1.0, SVG Export Plug-In . SVG Version: 6.00 Build 0)  -->

<svg
   xmlns:dc="http://purl.org/dc/elements/1.1/"
   xmlns:cc="http://creativecommons.org/ns#"
   xmlns:rdf="http://www.w3.org/1999/02/22-rdf-syntax-ns#"
   xmlns:svg="http://www.w3.org/2000/svg"
   xmlns="http://www.w3.org/2000/svg"
   xmlns:sodipodi="http://sodipodi.sourceforge.net/DTD/sodipodi-0.dtd"
   xmlns:inkscape="http://www.inkscape.org/namespaces/inkscape"
   version="1.1"
   id="Layer_1"
   x="0px"
   y="0px"
   width="55"
   height="55"
   viewBox="0 0 55 55"
   enable-background="new 0 0 100 100"
   xml:space="preserve"
   inkscape:version="0.48.4 r9939"
   sodipodi:docname="Cloud-Rain-Sun-Alt.svg"><metadata
     id="metadata3024"><rdf:RDF><cc:Work
         rdf:about=""><dc:format>image/svg+xml</dc:format><dc:type
           rdf:resource="http://purl.org/dc/dcmitype/StillImage" /></cc:Work></rdf:RDF></metadata><defs
     id="defs3022" /><sodipodi:namedview
     pagecolor="#ffffff"
     bordercolor="#666666"
     borderopacity="1"
     objecttolerance="10"
     gridtolerance="10"
     guidetolerance="10"
     inkscape:pageopacity="0"
     inkscape:pageshadow="2"
     inkscape:window-width="1920"
     inkscape:window-height="1056"
     id="namedview3020"
     showgrid="false"
     inkscape:zoom="2.36"
     inkscape:cx="-0.42372881"
     inkscape:cy="50"
     inkscape:window-x="1366"
     inkscape:window-y="24"
     inkscape:window-maximized="1"
     inkscape:current-layer="Layer_1" /><path
     clip-rule="evenodd"
     d="m 52.4965,27.000125 h -3.999 c -1.104,0 -2,-0.895 -2,-2 0,-1.104 0.896,-2 2,-2 h 3.999 c 1.104,0 2,0.896 2,2 0,1.106 -0.895,2 -2,2 z m -7.856,-13.312 c -0.781,0.781 -2.047,0.781 -2.828,0 -0.781,-0.78 -0.781,-2.047 0,-2.828 l 2.828,-2.828 c 0.781,-0.78 2.047,-0.78 2.828,0 0.781,0.781 0.781,2.048 0,2.828 l -2.828,2.828 z m -2.948,15.608 0,0 c 1.748,2.084 2.805,4.77 2.805,7.703 l 0,0 c 0,6.627 -5.371,11.998 -11.998,11.998 -0.266,0 -0.614,0 -1,0 0,-1.371 -0.319,-2.742 -0.943,-3.998 0.777,0 1.451,0 1.943,0 4.418,0 7.999,-3.582 7.999,-8 0,-4.418 -3.581,-7.998 -7.999,-7.998 -1.601,0 -3.084,0.48 -4.334,1.291 -1.231,-5.318 -5.973,-9.291 -11.664,-9.291 -6.627,0 -11.998,5.372 -11.998,11.998 0,1.406 0.254,2.748 0.697,4 h -0.005 c 1.437,4.053 4.987,7.104 9.331,7.824 -0.637,1.215 -0.969,2.547 -1.012,3.887 -6.096,-1.152 -10.964,-5.76 -12.498,-11.711 h 0.011 c -0.33,-1.279 -0.524,-2.615 -0.524,-4 0,-8.834 7.162,-15.997 15.998,-15.997 1.572,0 3.089,0.231 4.523,0.654 2.195,-2.827 5.617,-4.654 9.475,-4.654 6.627,0 11.998,5.371 11.998,11.998 0,1.516 -0.292,2.96 -0.805,4.296 z m -11.193,-12.294 c -2.213,0 -4.215,0.898 -5.662,2.35 2.34,1.435 4.285,3.452 5.629,5.854 0.664,-0.113 1.336,-0.205 2.033,-0.205 2.125,0 4.118,0.559 5.85,1.527 l 0,0 c 0.096,-0.494 0.149,-1.004 0.149,-1.527 0,-4.419 -3.581,-7.999 -7.999,-7.999 z m 0,-8 c -1.104,0 -2,-0.895 -2,-2 v -3.999 c 0,-1.104 0.896,-1.999 2,-1.999 1.104,0 2,0.895 2,1.999 v 3.999 c 0,1.106 -0.895,2 -2,2 z m -14.141,4.686 -2.828,-2.828 c -0.781,-0.78 -0.781,-2.047 0,-2.828 0.781,-0.78 2.047,-0.78 2.828,0 l 2.828,2.828 c 0.781,0.781 0.781,2.048 0,2.828 -0.781,0.781 -2.046,0.781 -2.828,0 z m 6.142,28.24 3.535,3.535 c 1.952,1.951 1.952,5.117 0,7.068 -1.952,1.953 -5.118,1.953 -7.07,0 -1.952,-1.951 -1.952,-5.117 0,-7.068 l 3.535,-3.535 z"
     id="path3018"
     inkscape:connector-curvature="0"
     style="fill-rule:evenodd" /></svg>