<?xml version="1.0" encoding="UTF-8" standalone="no"?>
<!-- Generator: Adobe Illustrator 15.1.0, SVG Export Plug-In . SVG Version: 6.00 Build 0)  -->

<svg
   xmlns:dc="http://purl.org/dc/elements/1.1/"
   xmlns:cc="http://creativecommons.org/ns#"
   xmlns:rdf="http://www.w3.org/1999/02/22-rdf-syntax-ns#"
   xmlns:svg="http://www.w3.org/2000/svg"
   xmlns="http://www.w3.org/2000/svg"
   xmlns:sodipodi="http://sodipodi.sourceforge.net/DTD/sodipodi-0.dtd"
   xmlns:inkscape="http://www.inkscape.org/namespaces/inkscape"
   version="1.1"
   id="Layer_1"
   x="0px"
   y="0px"
   width="55"
   height="55"
   viewBox="0 0 55 55"
   enable-background="new 0 0 100 100"
   xml:space="preserve"
   inkscape:version="0.48.4 r9939"
   sodipodi:docname="Cloud-Hail-Moon-Alt.svg"><metadata
     id="metadata3002"><rdf:RDF><cc:Work
         rdf:about=""><dc:format>image/svg+xml</dc:format><dc:type
           rdf:resource="http://purl.org/dc/dcmitype/StillImage" /></cc:Work></rdf:RDF></metadata><defs
     id="defs3000" /><sodipodi:namedview
     pagecolor="#ffffff"
     bordercolor="#666666"
     borderopacity="1"
     objecttolerance="10"
     gridtolerance="10"
     guidetolerance="10"
     inkscape:pageopacity="0"
     inkscape:pageshadow="2"
     inkscape:window-width="1920"
     inkscape:window-height="1056"
     id="namedview2998"
     showgrid="false"
     inkscape:zoom="2.36"
     inkscape:cx="-0.42372881"
     inkscape:cy="50"
     inkscape:window-x="1366"
     inkscape:window-y="24"
     inkscape:window-maximized="1"
     inkscape:current-layer="Layer_1" /><path
     clip-rule="evenodd"
     d="m 48.850065,46.313893 c -1.096454,0 -1.985336,-0.888882 -1.985336,-1.986329 0,-1.096455 0.889875,-1.984344 1.985336,-1.984344 1.097448,0 1.98633,0.888883 1.98633,1.984344 0,1.097447 -0.88789,1.986329 -1.98633,1.986329 z M 45.692794,21.604944 c 1.359642,1.935679 2.165099,4.288486 2.165099,6.833967 0,5.1873 -3.32015,9.586028 -7.944325,11.225743 v -4.351055 c 2.37267,-1.375534 3.972659,-3.935913 3.972659,-6.874688 0,-4.385816 -3.557517,-7.943332 -7.945319,-7.943332 -1.589064,0 -3.061928,0.476718 -4.303384,1.282176 -1.222586,-5.279665 -5.933166,-9.227495 -11.585268,-9.227495 -6.58071,0 -11.9159917,5.336274 -11.9159917,11.917978 0,1.394404 0.2502775,2.729217 0.6922359,3.970673 l 0,0 c 0.6753521,1.896946 1.8095458,3.575394 3.2804228,4.892331 V 38.21364 C 8.4739403,36.107137 5.7596207,32.604245 4.68303,28.438911 4.3532991,27.168653 4.1636047,25.841785 4.1636047,24.468238 c 0,-8.774612 7.1140393,-15.8896449 15.8886513,-15.8896449 1.988316,0 3.887247,0.37343 5.641176,1.0408367 1.623825,-4.6499988 6.036457,-7.9919983 11.240641,-7.9919983 0.750833,0 1.480809,0.077467 2.192908,0.2095577 -0.131098,0.572063 -0.206578,1.1659756 -0.206578,1.776772 0,4.387802 3.557516,7.9433338 7.944326,7.9433338 0.611789,0 1.203715,-0.07448 1.775778,-0.205586 0.132091,0.7121 0.209558,1.443069 0.209558,2.191915 0,3.112579 -1.202722,5.93714 -3.157271,8.06152 z M 35.159287,5.8056765 c -2.880179,0.6594616 -5.139628,2.8901094 -5.884502,5.7355275 l 0,0 c 1.903897,1.362623 3.497927,3.130456 4.647019,5.184321 0.659461,-0.112228 1.328854,-0.203599 2.019104,-0.203599 2.600106,0 4.998599,0.842204 6.958113,2.255477 0.852135,-0.973302 1.47485,-2.153182 1.7728,-3.4582 -4.819829,-0.896828 -8.615706,-4.691712 -9.512534,-9.5135265 z m -1.204709,-13.1157359 0,0 0,0 0,0 z M 7.1430994,47.307058 c 1.096454,0 1.9863302,0.889876 1.9863302,1.986329 0,1.097448 -0.8898762,1.98633 -1.9863302,1.98633 -1.096454,0 -1.9863298,-0.888882 -1.9863298,-1.98633 0,-1.096453 0.8888826,-1.986329 1.9863298,-1.986329 z M 17.073754,30.425241 c 0,-1.096453 -0.103288,-1.98633 0.992172,-1.98633 l 0,0 c 1.097448,0 0.993165,0.889877 0.993165,1.98633 v 23.833971 h -1.985337 l 0,0 0,0 c 0,-2.193901 -1.777765,-3.97266 -3.971666,-3.97266 v -1.98633 c 1.532454,0 2.915933,0.5959 3.971666,1.546359 v -19.42134 z m 8.937491,13.902323 c -1.096453,0 -0.993165,-0.888883 -0.993165,-1.984344 v -7.945319 c 0,-1.096455 -0.103287,-1.98633 0.993165,-1.98633 1.096454,0 0.993165,0.889875 0.993165,1.98633 v 7.945319 c 0,1.095461 0.102296,1.984344 -0.993165,1.984344 z m 0,3.972658 c 1.096454,0 1.98633,0.889877 1.98633,1.98633 0,1.096455 -0.889876,1.98633 -1.98633,1.98633 -1.096453,0 -1.98633,-0.889875 -1.98633,-1.98633 0,-1.096453 0.888883,-1.98633 1.98633,-1.98633 z m 7.943333,-19.861311 0,0 c 1.097447,0 0.993165,0.889877 0.993165,1.98633 V 48.3181 c 1.811533,-2.417363 4.690718,-3.990536 7.94532,-3.990536 v 1.986329 c -4.387803,0 -7.94532,3.557517 -7.94532,7.945319 h -1.985337 c 0,-0.271134 0.01887,-0.535316 0.03973,-0.801484 -0.05264,-0.331717 -0.03973,-0.738915 -0.03973,-1.184846 V 30.425241 c 0,-1.096453 -0.103287,-1.98633 0.992172,-1.98633 z"
     id="path2996"
     inkscape:connector-curvature="0"
     style="fill-rule:evenodd" /></svg>