<?xml version="1.0" encoding="UTF-8" standalone="no"?>
<!-- Generator: Adobe Illustrator 15.1.0, SVG Export Plug-In . SVG Version: 6.00 Build 0)  -->

<svg
   xmlns:dc="http://purl.org/dc/elements/1.1/"
   xmlns:cc="http://creativecommons.org/ns#"
   xmlns:rdf="http://www.w3.org/1999/02/22-rdf-syntax-ns#"
   xmlns:svg="http://www.w3.org/2000/svg"
   xmlns="http://www.w3.org/2000/svg"
   xmlns:sodipodi="http://sodipodi.sourceforge.net/DTD/sodipodi-0.dtd"
   xmlns:inkscape="http://www.inkscape.org/namespaces/inkscape"
   version="1.1"
   id="Layer_1"
   x="0px"
   y="0px"
   width="55"
   height="55"
   viewBox="0 0 55 55"
   enable-background="new 0 0 100 100"
   xml:space="preserve"
   inkscape:version="0.48.4 r9939"
   sodipodi:docname="Cloud-Hail-Sun.svg"><metadata
     id="metadata3011"><rdf:RDF><cc:Work
         rdf:about=""><dc:format>image/svg+xml</dc:format><dc:type
           rdf:resource="http://purl.org/dc/dcmitype/StillImage" /></cc:Work></rdf:RDF></metadata><defs
     id="defs3009" /><sodipodi:namedview
     pagecolor="#ffffff"
     bordercolor="#666666"
     borderopacity="1"
     objecttolerance="10"
     gridtolerance="10"
     guidetolerance="10"
     inkscape:pageopacity="0"
     inkscape:pageshadow="2"
     inkscape:window-width="1920"
     inkscape:window-height="1056"
     id="namedview3007"
     showgrid="false"
     inkscape:zoom="2.36"
     inkscape:cx="-0.42372881"
     inkscape:cy="50"
     inkscape:window-x="1366"
     inkscape:window-y="24"
     inkscape:window-maximized="1"
     inkscape:current-layer="Layer_1" /><path
     clip-rule="evenodd"
     d="m 50.025707,23.895076 h -3.604474 c -0.994834,0 -1.802236,-0.8065 -1.802236,-1.802236 0,-0.994836 0.807402,-1.802238 1.802236,-1.802238 h 3.604474 c 0.994836,0 1.801336,0.807402 1.801336,1.802238 0,0.996636 -0.8056,1.802236 -1.801336,1.802236 z M 42.945621,11.899388 c -0.702874,0.703774 -1.84459,0.703774 -2.548364,0 -0.702872,-0.702872 -0.702872,-1.84459 0,-2.548363 l 2.548364,-2.5483628 c 0.703772,-0.7028724 1.84549,-0.7028724 2.548362,0 0.703774,0.7037734 0.703774,1.8454904 0,2.5483628 l -2.548362,2.548363 z m -2.656498,14.063754 0,0 c 1.576056,1.877932 2.528538,4.298336 2.528538,6.942218 0,4.70654 -3.011538,8.697594 -7.208046,10.183538 v -3.9478 c 2.152772,-1.246246 3.603572,-3.56933 3.603572,-6.235738 0,-3.98024 -3.226904,-7.208048 -7.208046,-7.208048 -1.441788,0 -2.778148,0.432538 -3.904546,1.163344 -1.110178,-4.791246 -5.38328,-8.37139 -10.511546,-8.37139 -5.97081,0 -10.8116184,4.840808 -10.8116184,10.81162 0,3.19897 1.3967336,6.062724 3.6035724,8.042482 v 4.429898 C 6.0772616,39.27897 3.172957,34.634606 3.172957,29.300886 c 0,-7.961382 6.4547112,-14.415192 14.416092,-14.415192 1.416558,0 2.783555,0.208158 4.07666,0.589332 1.977054,-2.547462 5.061582,-4.193805 8.538096,-4.193805 5.970812,0 10.81162,4.839907 10.81162,10.811619 0,1.366094 -0.264028,2.66731 -0.726302,3.870302 z M 30.203805,14.885694 c -1.994174,0 -3.798214,0.809204 -5.103032,2.117628 2.109518,1.293106 3.862192,3.110662 5.072394,5.275148 0.598344,-0.101826 1.204796,-0.18473 1.831974,-0.18473 1.915778,0 3.710806,0.503726 5.271544,1.376008 l 0,0 c 0.0865,-0.445152 0.134266,-0.904722 0.134266,-1.376008 0,-3.982042 -3.226906,-7.208046 -7.207146,-7.208046 z m 0,-7.208947 c -0.994834,0 -1.802236,-0.806501 -1.802236,-1.8022368 V 2.2709377 c 0,-0.9948347 0.807402,-1.8013357 1.802236,-1.8013357 0.994836,0 1.801336,0.806501 1.801336,1.8013357 v 3.6035725 c 0,0.996637 -0.8065,1.8022368 -1.801336,1.8022368 z M 17.461091,11.899388 14.912727,9.351025 c -0.703772,-0.7028724 -0.703772,-1.8445894 0,-2.5483628 0.703774,-0.7028724 1.84459,-0.7028724 2.548364,0 l 2.548362,2.5483628 c 0.702872,0.703773 0.702872,1.845491 0,2.548363 -0.703774,0.703774 -1.843688,0.703774 -2.548362,0 z m -1.673378,31.81759 c -0.994834,0 -0.901118,-0.806502 -0.901118,-1.800434 v -7.208948 c 0,-0.994834 -0.09372,-1.802236 0.901118,-1.802236 0.994836,0 0.900218,0.807402 0.900218,1.802236 v 7.208948 c 0,0.993932 0.09372,1.800434 -0.900218,1.800434 z m 0,3.604474 c 0.994836,0 1.801336,0.807402 1.801336,1.802236 0,0.995736 -0.807402,1.802237 -1.801336,1.802237 -0.994834,0 -1.802236,-0.806501 -1.802236,-1.802237 0,-0.994834 0.8065,-1.802236 1.802236,-1.802236 z m 7.208046,0 c -0.994834,0 -0.901118,-0.806502 -0.901118,-1.802238 V 38.31207 c 0,-0.995736 -0.09372,-1.802238 0.901118,-1.802238 0.994836,0 0.900218,0.806502 0.900218,1.802238 v 7.207144 c 0,0.995736 0.09372,1.802238 -0.900218,1.802238 z m 0,3.604473 c 0.994836,0 1.801336,0.806501 1.801336,1.802237 0,0.994834 -0.807402,1.802236 -1.801336,1.802236 -0.994834,0 -1.802236,-0.807402 -1.802236,-1.802236 0,-0.996638 0.8065,-1.802237 1.802236,-1.802237 z m 7.208046,-7.208947 c -0.994834,0 -0.901118,-0.806502 -0.901118,-1.800434 v -7.208948 c 0,-0.994834 -0.09372,-1.802236 0.901118,-1.802236 0.994836,0 0.900218,0.807402 0.900218,1.802236 v 7.208948 c 0,0.993932 0.09462,1.800434 -0.900218,1.800434 z m 0,3.604474 c 0.994836,0 1.801336,0.807402 1.801336,1.802236 0,0.995736 -0.807402,1.802237 -1.801336,1.802237 -0.994834,0 -1.802236,-0.806501 -1.802236,-1.802237 0,-0.994834 0.807402,-1.802236 1.802236,-1.802236 z"
     id="path3005"
     inkscape:connector-curvature="0"
     style="fill-rule:evenodd" /></svg>