<?xml version="1.0" encoding="UTF-8" standalone="no"?>
<!-- Generator: Adobe Illustrator 15.1.0, SVG Export Plug-In . SVG Version: 6.00 Build 0)  -->

<svg
   xmlns:dc="http://purl.org/dc/elements/1.1/"
   xmlns:cc="http://creativecommons.org/ns#"
   xmlns:rdf="http://www.w3.org/1999/02/22-rdf-syntax-ns#"
   xmlns:svg="http://www.w3.org/2000/svg"
   xmlns="http://www.w3.org/2000/svg"
   xmlns:sodipodi="http://sodipodi.sourceforge.net/DTD/sodipodi-0.dtd"
   xmlns:inkscape="http://www.inkscape.org/namespaces/inkscape"
   version="1.1"
   id="Layer_1"
   x="0px"
   y="0px"
   width="55"
   height="55"
   viewBox="0 0 55 55"
   enable-background="new 0 0 100 100"
   xml:space="preserve"
   inkscape:version="0.48.4 r9939"
   sodipodi:docname="Cloud-Wind-Moon.svg"><metadata
     id="metadata9"><rdf:RDF><cc:Work
         rdf:about=""><dc:format>image/svg+xml</dc:format><dc:type
           rdf:resource="http://purl.org/dc/dcmitype/StillImage" /></cc:Work></rdf:RDF></metadata><defs
     id="defs7" /><sodipodi:namedview
     pagecolor="#ffffff"
     bordercolor="#666666"
     borderopacity="1"
     objecttolerance="10"
     gridtolerance="10"
     guidetolerance="10"
     inkscape:pageopacity="0"
     inkscape:pageshadow="2"
     inkscape:window-width="640"
     inkscape:window-height="480"
     id="namedview5"
     showgrid="false"
     inkscape:zoom="2.36"
     inkscape:cx="-0.42372881"
     inkscape:cy="50"
     inkscape:window-x="10"
     inkscape:window-y="336"
     inkscape:window-maximized="0"
     inkscape:current-layer="Layer_1" /><path
     clip-rule="evenodd"
     d="m 47.906959,41.994367 v 0.04786 H 47.20319 44.389051 c -1.035947,0 -1.876716,-0.839831 -1.876716,-1.876717 0,-1.035949 0.840769,-1.87578 1.876716,-1.87578 h 2.814139 c 1.035948,0 1.876717,-0.840769 1.876717,-1.876718 0,-1.035948 -0.840769,-1.875779 -1.876717,-1.875779 -1.035948,0 -1.876717,-0.840769 -1.876717,-1.876718 0,-1.036886 0.840769,-1.876717 1.876717,-1.876717 0.130432,0 0.256172,0.01314 0.378158,0.03847 2.929557,0.197994 5.251057,2.611453 5.251057,5.590742 0,2.869502 -2.148842,5.233228 -4.925446,5.581359 z m -5.12344,-18.716506 h 0.0094 c 0.19987,0.564892 0.361268,1.146675 0.469179,1.748163 -1.308072,-0.933668 -2.861994,-1.544539 -4.550102,-1.703122 -0.0084,-0.01595 -0.01971,-0.02909 -0.02909,-0.04504 h 0.0028 c -1.298688,-2.24174 -3.717778,-3.752498 -6.494382,-3.752498 -1.501374,0 -2.89296,0.450412 -4.065909,1.210483 -1.156058,-4.988316 -5.605755,-8.717354 -10.945956,-8.717354 -6.217565,0 -11.258429,5.040864 -11.258429,11.259368 l 0,0 c 0,6.217566 5.040864,11.259368 11.258429,11.259368 2.437857,0 7.649502,0 11.44704,0 h 9.19404 c 1.035949,0 1.876718,-0.840769 1.876718,-1.876718 0,-1.036886 -0.840769,-1.876717 -1.876718,-1.876717 -1.035948,0 -1.875779,-0.84077 -1.875779,-1.876718 0,-1.035948 0.84077,-1.876718 1.875779,-1.876718 0.130432,0 0.256172,0.01314 0.378159,0.03847 2.929556,0.197994 5.251995,2.611453 5.251995,5.59168 0,2.87044 -2.149781,5.233228 -4.926384,5.580421 v 0.04879 h -0.70377 -7.492795 c -3.764696,0 -10.656942,0 -13.148285,0 -1.035948,0 -1.875779,0.84077 -1.875779,1.87578 0,1.036886 0.839831,1.876717 1.875779,1.876717 h 20.64108 0.70377 v 0.04973 c 2.776603,0.346254 4.926384,2.710918 4.926384,5.580421 0,2.979289 -2.322439,5.392747 -5.251995,5.590742 -0.121987,0.0244 -0.248665,0.03847 -0.378159,0.03847 -1.035948,0 -1.875779,-0.840769 -1.875779,-1.876717 0,-1.035948 0.84077,-1.87578 1.875779,-1.87578 1.035949,0 1.876718,-0.840769 1.876718,-1.876717 0,-1.036887 -0.840769,-1.876717 -1.876718,-1.876717 H 17.179459 16.47569 v -0.0488 c -2.775665,-0.347193 -4.925445,-2.711857 -4.925445,-5.581358 0,-0.98997 0.275877,-1.906746 0.725351,-2.711858 C 6.3958396,35.419286 2.1675945,29.849188 2.1675945,23.277861 c 0,-8.290401 6.7214646,-15.0118657 15.0118645,-15.0118657 1.878595,0 3.672737,0.3528229 5.329879,0.9834 1.534216,-4.3943346 5.703345,-7.5509738 10.620345,-7.5509738 0.708461,0 1.399093,0.073192 2.071897,0.1979937 -0.123864,0.5404947 -0.195179,1.100695 -0.195179,1.678724 0,4.1456695 3.360263,7.5049948 7.505933,7.5049948 0.57709,0 1.137291,-0.07131 1.677785,-0.194241 0.12574,0.672804 0.198932,1.362498 0.198932,2.070959 0,2.941755 -1.13729,5.610447 -2.983981,7.614782 0.579906,0.825756 1.034072,1.739717 1.378449,2.706227 z M 31.451898,5.6460973 C 28.730657,6.2682292 26.596829,8.3767216 25.89306,11.064181 l 0,0 c 1.798834,1.287429 3.3049,2.958646 4.390581,4.900111 0.62307,-0.106973 1.254586,-0.192364 1.907683,-0.192364 2.456624,0 4.722761,0.795729 6.573204,2.131013 0.806051,-0.919591 1.394402,-2.0353 1.675909,-3.267365 -4.554794,-0.849215 -8.140263,-4.434685 -8.988539,-8.9894787 z"
     id="path3"
     inkscape:connector-curvature="0"
     style="fill-rule:evenodd" /></svg>