<?xml version="1.0" encoding="UTF-8" standalone="no"?>
<!-- Generator: Adobe Illustrator 15.1.0, SVG Export Plug-In . SVG Version: 6.00 Build 0)  -->

<svg
   xmlns:dc="http://purl.org/dc/elements/1.1/"
   xmlns:cc="http://creativecommons.org/ns#"
   xmlns:rdf="http://www.w3.org/1999/02/22-rdf-syntax-ns#"
   xmlns:svg="http://www.w3.org/2000/svg"
   xmlns="http://www.w3.org/2000/svg"
   xmlns:sodipodi="http://sodipodi.sourceforge.net/DTD/sodipodi-0.dtd"
   xmlns:inkscape="http://www.inkscape.org/namespaces/inkscape"
   version="1.1"
   id="Layer_1"
   x="0px"
   y="0px"
   width="55"
   height="55"
   viewBox="0 0 55 55"
   enable-background="new 0 0 100 100"
   xml:space="preserve"
   inkscape:version="0.48.4 r9939"
   sodipodi:docname="Cloud-Fog-Moon.svg"><metadata
     id="metadata9"><rdf:RDF><cc:Work
         rdf:about=""><dc:format>image/svg+xml</dc:format><dc:type
           rdf:resource="http://purl.org/dc/dcmitype/StillImage" /></cc:Work></rdf:RDF></metadata><defs
     id="defs7" /><sodipodi:namedview
     pagecolor="#ffffff"
     bordercolor="#666666"
     borderopacity="1"
     objecttolerance="10"
     gridtolerance="10"
     guidetolerance="10"
     inkscape:pageopacity="0"
     inkscape:pageshadow="2"
     inkscape:window-width="1920"
     inkscape:window-height="1056"
     id="namedview5"
     showgrid="false"
     inkscape:zoom="2.36"
     inkscape:cx="-0.42372881"
     inkscape:cy="50"
     inkscape:window-x="1366"
     inkscape:window-y="24"
     inkscape:window-maximized="1"
     inkscape:current-layer="Layer_1" /><path
     clip-rule="evenodd"
     d="m 46.8185,24.116 0,0 c 0.617,0.88 1.102,1.854 1.469,2.884 h 0.019 l 0,0 h -4.387 l 0,0 0,0 c -1.384,-2.389 -3.962,-3.999 -6.921,-3.999 -1.6,0 -3.082,0.48 -4.333,1.29 -1.231,-5.316 -5.974,-9.29 -11.665,-9.29 -6.626,0 -11.998,5.372 -11.998,11.999 l 0,0 h -4 l 0,0 c 0,-8.835 7.163,-15.998 15.998,-15.998 2.003,0 3.914,0.376 5.68,1.048 l 0,0 c 1.635,-4.683 6.079,-8.047 11.318,-8.047 0.756,0 1.492,0.078 2.208,0.211 -0.132,0.576 -0.208,1.173 -0.208,1.789 0,4.418 3.582,7.998 7.999,7.998 0.616,0 1.212,-0.076 1.788,-0.207 0.134,0.717 0.212,1.452 0.212,2.207 0,3.134 -1.212,5.978 -3.179,8.115 z M 36.2115,8.21 c -2.9,0.663 -5.175,2.91 -5.924,5.774 l 0,0 c 1.916,1.372 3.521,3.153 4.678,5.222 0.664,-0.114 1.338,-0.205 2.033,-0.205 2.619,0 5.033,0.848 7.006,2.271 l 0,0 c 0.858,-0.98 1.485,-2.169 1.785,-3.482 -4.853,-0.905 -8.675,-4.726 -9.578,-9.58 z M 7.0025,30.999 h 39.996 c 1.104,0 1.999,0.896 1.999,2 0,1.104 -0.896,2 -1.999,2 H 7.0025 c -1.104,0 -2,-0.896 -2,-2 0,-1.104 0.896,-2 2,-2 z m 0,8 h 39.996 c 1.104,0 1.999,0.895 1.999,1.999 0,1.104 -0.896,2 -1.999,2 H 7.0025 c -1.104,0 -2,-0.896 -2,-2 0,-1.104 0.896,-1.999 2,-1.999 z m 0,7.998 h 39.996 c 1.104,0 1.999,0.896 1.999,2 0,1.104 -0.896,2 -1.999,2 H 7.0025 c -1.104,0 -2,-0.896 -2,-2 0,-1.104 0.896,-2 2,-2 z"
     id="path3"
     inkscape:connector-curvature="0"
     style="fill-rule:evenodd" /></svg>