<?xml version="1.0" encoding="UTF-8" standalone="no"?>
<!-- Generator: Adobe Illustrator 15.1.0, SVG Export Plug-In . SVG Version: 6.00 Build 0)  -->

<svg
   xmlns:dc="http://purl.org/dc/elements/1.1/"
   xmlns:cc="http://creativecommons.org/ns#"
   xmlns:rdf="http://www.w3.org/1999/02/22-rdf-syntax-ns#"
   xmlns:svg="http://www.w3.org/2000/svg"
   xmlns="http://www.w3.org/2000/svg"
   xmlns:sodipodi="http://sodipodi.sourceforge.net/DTD/sodipodi-0.dtd"
   xmlns:inkscape="http://www.inkscape.org/namespaces/inkscape"
   version="1.1"
   id="Layer_1"
   x="0px"
   y="0px"
   width="55"
   height="55"
   viewBox="0 0 55 55"
   enable-background="new 0 0 100 100"
   xml:space="preserve"
   inkscape:version="0.48.4 r9939"
   sodipodi:docname="Cloud-Fog-Sun-Alt.svg"><metadata
     id="metadata3011"><rdf:RDF><cc:Work
         rdf:about=""><dc:format>image/svg+xml</dc:format><dc:type
           rdf:resource="http://purl.org/dc/dcmitype/StillImage" /></cc:Work></rdf:RDF></metadata><defs
     id="defs3009" /><sodipodi:namedview
     pagecolor="#ffffff"
     bordercolor="#666666"
     borderopacity="1"
     objecttolerance="10"
     gridtolerance="10"
     guidetolerance="10"
     inkscape:pageopacity="0"
     inkscape:pageshadow="2"
     inkscape:window-width="1920"
     inkscape:window-height="1056"
     id="namedview3007"
     showgrid="false"
     inkscape:zoom="2.36"
     inkscape:cx="-0.42372881"
     inkscape:cy="50"
     inkscape:window-x="1366"
     inkscape:window-y="24"
     inkscape:window-maximized="1"
     inkscape:current-layer="Layer_1" /><path
     clip-rule="evenodd"
     d="m 52.497,30.5005 h -4 c -1.104,0 -2,-0.896 -2,-2 0,-1.104 0.896,-2 2,-2 h 4 c 1.104,0 2,0.896 2,2 0,1.103 -0.896,2 -2,2 z M 44.64,17.1875 c -0.781,0.781 -2.047,0.781 -2.828,0 -0.781,-0.781 -0.781,-2.047 0,-2.828 l 2.828,-2.828 c 0.781,-0.781 2.047,-0.781 2.828,0 0.781,0.781 0.781,2.047 0,2.828 l -2.828,2.828 z m -2.322,13.313 H 1.677 c 0.281,-0.693 0.613,-1.359 0.984,-2 h 27.672 c 0.041,0.07 0.094,0.134 0.133,0.205 0.664,-0.114 1.337,-0.205 2.033,-0.205 2.125,0 4.119,0.559 5.85,1.527 l 0,0 c 0.096,-0.494 0.15,-1.006 0.15,-1.527 0,-4.418 -3.582,-7.999 -8,-7.999 -2.025,0 -3.869,0.759 -5.277,1.999 H 8.763 c 2.294,-1.271 4.93,-1.999 7.738,-1.999 1.572,0 3.09,0.232 4.523,0.655 2.195,-2.828 5.618,-4.654 9.475,-4.654 6.627,0 11.999,5.371 11.999,11.998 0,0.683 -0.067,1.349 -0.18,2 z M 30.499,12.5025 c -1.104,0 -1.999,-0.896 -1.999,-2 v -3.999 c 0,-1.104 0.896,-2 1.999,-2 1.105,0 2,0.896 2,2 v 3.999 c 0,1.104 -0.895,2 -2,2 z m -14.141,4.685 -2.827,-2.828 c -0.781,-0.781 -0.781,-2.047 0,-2.828 0.78,-0.781 2.047,-0.781 2.827,0 l 2.828,2.828 c 0.781,0.781 0.781,2.047 0,2.828 -0.78,0.781 -2.046,0.781 -2.828,0 z m -10.414,7.313 h 21.081 c 0.696,0.611 1.337,1.278 1.918,2 H 4.024 c 0.58,-0.723 1.225,-1.388 1.92,-2 z m 38.381,13.998 H 0.642 c -0.082,-0.656 -0.139,-1.32 -0.139,-2 h 43.303 c 0.228,0.644 0.404,1.312 0.519,2 z m -38.381,10 h 35.48 c -0.68,0.758 -1.447,1.434 -2.299,1.998 H 8.763 c -1.016,-0.561 -1.955,-1.239 -2.819,-1.998 z m -3.283,-4 H 43.8 c -0.246,0.699 -0.555,1.367 -0.92,2 H 4.024 c -0.504,-0.629 -0.957,-1.299 -1.363,-2 z m -2.019,-10 c 0.085,-0.682 0.218,-1.346 0.387,-1.998 h 40.764 c -0.035,0.098 -0.062,0.197 -0.1,0.295 l 0,0 c 0.445,0.529 0.845,1.102 1.194,1.703 H 0.642 z m 0.386,6 h 43.47 c 0,0.684 -0.071,1.348 -0.181,2 H 1.677 c -0.262,-0.647 -0.473,-1.317 -0.649,-2 z"
     id="path3005"
     inkscape:connector-curvature="0"
     style="fill-rule:evenodd" /></svg>