<?xml version="1.0" encoding="UTF-8" standalone="no"?>
<!-- Generator: Adobe Illustrator 15.1.0, SVG Export Plug-In . SVG Version: 6.00 Build 0)  -->

<svg
   xmlns:dc="http://purl.org/dc/elements/1.1/"
   xmlns:cc="http://creativecommons.org/ns#"
   xmlns:rdf="http://www.w3.org/1999/02/22-rdf-syntax-ns#"
   xmlns:svg="http://www.w3.org/2000/svg"
   xmlns="http://www.w3.org/2000/svg"
   xmlns:sodipodi="http://sodipodi.sourceforge.net/DTD/sodipodi-0.dtd"
   xmlns:inkscape="http://www.inkscape.org/namespaces/inkscape"
   version="1.1"
   id="Layer_1"
   x="0px"
   y="0px"
   width="55"
   height="55"
   viewBox="0 0 55 55"
   enable-background="new 0 0 100 100"
   xml:space="preserve"
   inkscape:version="0.48.4 r9939"
   sodipodi:docname="Cloud-Drizzle-Sun-Alt.svg"><metadata
     id="metadata3002"><rdf:RDF><cc:Work
         rdf:about=""><dc:format>image/svg+xml</dc:format><dc:type
           rdf:resource="http://purl.org/dc/dcmitype/StillImage" /></cc:Work></rdf:RDF></metadata><defs
     id="defs3000" /><sodipodi:namedview
     pagecolor="#ffffff"
     bordercolor="#666666"
     borderopacity="1"
     objecttolerance="10"
     gridtolerance="10"
     guidetolerance="10"
     inkscape:pageopacity="0"
     inkscape:pageshadow="2"
     inkscape:window-width="1920"
     inkscape:window-height="1056"
     id="namedview2998"
     showgrid="false"
     inkscape:zoom="2.36"
     inkscape:cx="-0.42372881"
     inkscape:cy="50"
     inkscape:window-x="1366"
     inkscape:window-y="24"
     inkscape:window-maximized="1"
     inkscape:current-layer="Layer_1" /><path
     clip-rule="evenodd"
     d="m 50.141019,24.576693 h -3.622998 c -0.999947,0 -1.811499,-0.810645 -1.811499,-1.811498 0,-0.999948 0.811552,-1.809688 1.811499,-1.809688 h 3.622998 c 0.999947,0 1.810593,0.810646 1.810593,1.809688 0,1.001758 -0.80974,1.811498 -1.810593,1.811498 z M 43.024546,12.519357 c -0.70739,0.70739 -1.854069,0.70739 -2.56146,0 -0.70739,-0.706485 -0.70739,-1.854069 0,-2.5605533 l 2.56146,-2.5614594 c 0.70739,-0.7073903 1.854069,-0.7073903 2.561459,0 0.70739,0.7064845 0.70739,1.8540691 0,2.5614594 l -2.561459,2.5605533 z m -2.669244,14.136031 0,0 c 1.584156,1.889394 2.541533,4.320425 2.541533,6.979705 l 0,0 c 0,4.734353 -3.033355,8.74954 -7.258676,10.239498 -0.02446,-1.210081 -0.393095,-2.409294 -1.106826,-3.448188 2.766159,-1.02078 4.741599,-3.672814 4.741599,-6.79131 0,-4.001601 -3.243489,-7.245995 -7.24509,-7.245995 -1.450105,0 -2.792426,0.436571 -3.924612,1.169323 -1.115884,-4.814964 -5.410947,-8.414413 -10.565567,-8.414413 -6.001496,0 -10.8671826,4.865686 -10.8671826,10.868088 0,1.271672 0.2300603,2.487188 0.6313073,3.622997 h 0.013586 c 0.8831057,2.481754 2.6221446,4.556826 4.8865193,5.837556 l -0.05253,0.05163 c -0.887639,0.887632 -1.44558,1.978154 -1.695567,3.120304 -3.3974664,-1.908414 -5.9335648,-5.150091 -6.9307949,-9.00949 l 0,0 C 3.2241038,32.474828 3.0483884,31.264747 3.0483884,30.012096 c 0,-8.003202 6.4878832,-14.49018 14.4901796,-14.49018 1.423838,0 2.79786,0.210134 4.096705,0.592361 1.98812,-2.560554 5.0885,-4.215358 8.581976,-4.215358 6.002401,0 10.868087,4.865686 10.868087,10.867181 -9.05e-4,1.372211 -0.26629,2.681019 -0.730034,3.889288 z M 30.216343,15.521916 c -2.003518,0 -3.816828,0.813363 -5.128353,2.128512 2.119454,1.300656 3.882042,3.127552 5.098463,5.301351 0.601418,-0.10235 1.210987,-0.185679 1.841389,-0.185679 1.925623,0 3.729876,0.506314 5.298634,1.38308 l 0,0 c 0.08695,-0.447441 0.134957,-0.909373 0.134957,-1.38308 0,-4.000695 -3.243489,-7.244184 -7.24509,-7.244184 z m 0,-7.2459948 c -0.999947,0 -1.810593,-0.8106457 -1.810593,-1.8105931 V 2.8432362 c 0,-1.0008532 0.810646,-1.8114989 1.810593,-1.8114989 0.999947,0 1.811499,0.8106457 1.811499,1.8114989 v 3.6220919 c 0,0.9999474 -0.810646,1.8105931 -1.811499,1.8105931 z M 17.409952,12.519357 14.848493,9.9588037 c -0.707391,-0.7073903 -0.707391,-1.8549749 0,-2.5614594 0.706484,-0.7073903 1.854069,-0.7073903 2.561459,0 l 2.561459,2.5614594 c 0.706485,0.7064843 0.706485,1.8540693 0,2.5605533 -0.70739,0.70739 -1.854975,0.70739 -2.561459,0 z m -0.778039,27.645284 1.921095,1.921095 c 1.061538,1.061538 1.061538,2.78065 0,3.842189 -1.060633,1.061538 -2.780651,1.061538 -3.842189,0 -1.060633,-1.061539 -1.060633,-2.780651 0,-3.842189 l 1.921094,-1.921095 z m 6.33934,7.244184 1.921095,1.921095 c 1.061538,1.061538 1.061538,2.782462 0,3.842189 -1.060633,1.061538 -2.780651,1.061538 -3.842189,0 -1.060633,-1.059727 -1.060633,-2.780651 0,-3.842189 l 1.921094,-1.921095 z m 6.339341,-7.244184 1.921094,1.921095 c 1.061539,1.061538 1.061539,2.78065 0,3.842189 -1.060632,1.061538 -2.780651,1.061538 -3.841283,0 -1.061538,-1.061539 -1.061538,-2.780651 0,-3.842189 l 1.920189,-1.921095 z"
     id="path2996"
     inkscape:connector-curvature="0"
     style="fill-rule:evenodd" /></svg>