<?xml version="1.0" encoding="UTF-8" standalone="no"?>
<!-- Generator: Adobe Illustrator 15.1.0, SVG Export Plug-In . SVG Version: 6.00 Build 0)  -->

<svg
   xmlns:dc="http://purl.org/dc/elements/1.1/"
   xmlns:cc="http://creativecommons.org/ns#"
   xmlns:rdf="http://www.w3.org/1999/02/22-rdf-syntax-ns#"
   xmlns:svg="http://www.w3.org/2000/svg"
   xmlns="http://www.w3.org/2000/svg"
   xmlns:sodipodi="http://sodipodi.sourceforge.net/DTD/sodipodi-0.dtd"
   xmlns:inkscape="http://www.inkscape.org/namespaces/inkscape"
   version="1.1"
   id="Layer_1"
   x="0px"
   y="0px"
   width="55"
   height="55"
   viewBox="0 0 55 55"
   enable-background="new 0 0 100 100"
   xml:space="preserve"
   inkscape:version="0.48.4 r9939"
   sodipodi:docname="Cloud-Drizzle-Sun.svg"><metadata
     id="metadata2993"><rdf:RDF><cc:Work
         rdf:about=""><dc:format>image/svg+xml</dc:format><dc:type
           rdf:resource="http://purl.org/dc/dcmitype/StillImage" /></cc:Work></rdf:RDF></metadata><defs
     id="defs2991" /><sodipodi:namedview
     pagecolor="#ffffff"
     bordercolor="#666666"
     borderopacity="1"
     objecttolerance="10"
     gridtolerance="10"
     guidetolerance="10"
     inkscape:pageopacity="0"
     inkscape:pageshadow="2"
     inkscape:window-width="1920"
     inkscape:window-height="1056"
     id="namedview2989"
     showgrid="false"
     inkscape:zoom="2.36"
     inkscape:cx="-0.42372881"
     inkscape:cy="56.355932"
     inkscape:window-x="1366"
     inkscape:window-y="24"
     inkscape:window-maximized="1"
     inkscape:current-layer="Layer_1" /><path
     clip-rule="evenodd"
     d="m 49.847764,23.923785 h -3.57532 c -0.987035,0 -1.788108,-0.800178 -1.788108,-1.788108 0,-0.987034 0.801073,-1.787212 1.788108,-1.787212 h 3.57532 c 0.987036,0 1.788108,0.800178 1.788108,1.787212 0,0.98793 -0.800179,1.788108 -1.788108,1.788108 z M 42.824079,12.022143 c -0.698256,0.698256 -1.831022,0.698256 -2.528384,0 -0.698256,-0.697362 -0.698256,-1.830128 0,-2.5274903 l 2.528384,-2.528383 c 0.697362,-0.698256 1.830127,-0.698256 2.528384,0 0.697361,0.697361 0.697361,1.830127 0,2.528383 l -2.528384,2.5274903 z m -2.634777,13.953495 0,0 c 1.563701,1.864997 2.507821,4.264636 2.507821,6.888684 0,4.667854 -2.987927,8.629405 -7.151536,10.103701 v -3.91685 c 2.135895,-1.238264 3.576216,-3.541347 3.576216,-6.186851 0,-3.949929 -3.202501,-7.152429 -7.151536,-7.152429 -1.43138,0 -2.757261,0.430934 -3.874828,1.154223 -1.10058,-4.75279 -5.340183,-8.305759 -10.428243,-8.305759 -5.924893,0 -10.7277479,4.802857 -10.7277479,10.72775 0,3.172997 1.3866772,6.016087 3.5762139,7.980323 v 4.39338 C 6.2447683,39.187069 3.3641275,34.579117 3.3641275,29.288107 c 0,-7.899858 6.4032113,-14.303071 14.3030685,-14.303071 1.405453,0 2.761733,0.207421 4.043806,0.584711 1.962447,-2.527489 5.021899,-4.160925 8.471158,-4.160925 5.924894,0 10.726855,4.802856 10.726855,10.726855 -8.93e-4,1.354492 -0.261957,2.647294 -0.719713,3.839961 z M 30.181265,14.985036 c -1.97854,0 -3.768435,0.802861 -5.063025,2.101027 2.092979,1.283861 3.831914,3.086273 5.033522,5.232896 0.593652,-0.101032 1.194456,-0.183282 1.817611,-0.183282 1.899864,0 3.681713,0.499777 5.230214,1.365221 l 0,0 c 0.08583,-0.441663 0.133214,-0.897631 0.133214,-1.365221 0,-3.949034 -3.201606,-7.150641 -7.151536,-7.150641 z m 0,-7.1524283 c -0.987034,0 -1.788106,-0.800178 -1.788106,-1.787214 v -3.57532 c 0,-0.98793 0.801072,-1.78810801 1.788106,-1.78810801 0.987036,0 1.788108,0.80017801 1.788108,1.78810801 v 3.57532 c 0,0.98793 -0.800178,1.787214 -1.788108,1.787214 z M 17.539347,12.022143 15.010963,9.4946527 c -0.697361,-0.698256 -0.697361,-1.831022 0,-2.528383 0.698256,-0.698256 1.830128,-0.698256 2.528384,0 l 2.528384,2.528383 c 0.698256,0.6973623 0.698256,1.8301283 0,2.5274903 -0.698256,0.698256 -1.830128,0.698256 -2.528384,0 z m -1.661152,20.842179 c 0.987036,0 1.788108,0.800178 1.788108,1.788107 v 3.574426 c 0,0.98793 -0.801072,1.788108 -1.788108,1.788108 -0.987035,0 -1.788108,-0.800178 -1.788108,-1.788108 v -3.574426 c 0,-0.988823 0.801073,-1.788107 1.788108,-1.788107 z m 0,10.726855 c 0.987036,0 1.788108,0.800179 1.788108,1.788108 v 3.574427 c 0,0.987929 -0.801072,1.788107 -1.788108,1.788107 -0.987035,0 -1.788108,-0.800178 -1.788108,-1.788107 v -3.574427 c 0,-0.988823 0.801073,-1.788108 1.788108,-1.788108 z m 7.151536,-7.152428 c 0.987034,0 1.788106,0.801072 1.788106,1.788106 v 3.576216 c 0,0.987034 -0.801072,1.788106 -1.788106,1.788106 -0.987036,0 -1.788108,-0.801072 -1.788108,-1.788106 v -3.576216 c 0,-0.987034 0.801072,-1.788106 1.788108,-1.788106 z m 0,10.728644 c 0.987034,0 1.788106,0.800178 1.788106,1.786319 v 3.576215 c 0,0.987928 -0.801072,1.788107 -1.788106,1.788107 -0.987036,0 -1.788108,-0.800179 -1.788108,-1.788107 v -3.576215 c 0,-0.987035 0.801072,-1.786319 1.788108,-1.786319 z m 7.151534,-14.303071 c 0.987036,0 1.788108,0.800178 1.788108,1.788107 v 3.574426 c 0,0.98793 -0.801072,1.788108 -1.788108,1.788108 -0.987034,0 -1.788106,-0.800178 -1.788106,-1.788108 v -3.574426 c 0,-0.988823 0.801072,-1.788107 1.788106,-1.788107 z m 0,10.726855 c 0.987036,0 1.788108,0.800179 1.788108,1.788108 v 3.574427 c 0,0.987929 -0.801072,1.788107 -1.788108,1.788107 -0.987034,0 -1.788106,-0.800178 -1.788106,-1.788107 v -3.574427 c 0,-0.988823 0.801072,-1.788108 1.788106,-1.788108 z"
     id="path2987"
     inkscape:connector-curvature="0"
     style="fill-rule:evenodd" /></svg>