<?xml version="1.0" encoding="UTF-8" standalone="no"?>
<!-- Generator: Adobe Illustrator 15.1.0, SVG Export Plug-In . SVG Version: 6.00 Build 0)  -->

<svg
   xmlns:dc="http://purl.org/dc/elements/1.1/"
   xmlns:cc="http://creativecommons.org/ns#"
   xmlns:rdf="http://www.w3.org/1999/02/22-rdf-syntax-ns#"
   xmlns:svg="http://www.w3.org/2000/svg"
   xmlns="http://www.w3.org/2000/svg"
   xmlns:sodipodi="http://sodipodi.sourceforge.net/DTD/sodipodi-0.dtd"
   xmlns:inkscape="http://www.inkscape.org/namespaces/inkscape"
   version="1.1"
   id="Layer_1"
   x="0px"
   y="0px"
   width="55"
   height="55"
   viewBox="0 0 55 55"
   enable-background="new 0 0 100 100"
   xml:space="preserve"
   inkscape:version="0.48.4 r9939"
   sodipodi:docname="Compass.svg"><metadata
     id="metadata3002"><rdf:RDF><cc:Work
         rdf:about=""><dc:format>image/svg+xml</dc:format><dc:type
           rdf:resource="http://purl.org/dc/dcmitype/StillImage" /></cc:Work></rdf:RDF></metadata><defs
     id="defs3000" /><sodipodi:namedview
     pagecolor="#ffffff"
     bordercolor="#666666"
     borderopacity="1"
     objecttolerance="10"
     gridtolerance="10"
     guidetolerance="10"
     inkscape:pageopacity="0"
     inkscape:pageshadow="2"
     inkscape:window-width="640"
     inkscape:window-height="480"
     id="namedview2998"
     showgrid="false"
     showborder="true"
     inkscape:zoom="2.36"
     inkscape:cx="-0.42372881"
     inkscape:cy="50"
     inkscape:window-x="0"
     inkscape:window-y="336"
     inkscape:window-maximized="0"
     inkscape:current-layer="Layer_1" /><path
     clip-rule="evenodd"
     d="m 27.5,47.430915 c -11.00874,0 -19.9302035,-8.924312 -19.9302035,-19.931628 0,-11.005891 8.9214635,-19.9302025 19.9302035,-19.9302025 11.005892,0 19.930204,8.9243115 19.930204,19.9302025 0,11.007316 -8.924312,19.931628 -19.930204,19.931628 z m 0,-34.166674 c -7.863589,0 -14.237893,6.374305 -14.237893,14.235046 0,7.862165 6.374304,14.23647 14.237893,14.23647 7.86074,0 14.235045,-6.374305 14.235045,-14.23647 0,-7.860741 -6.374305,-14.235046 -14.235045,-14.235046 z m 4.440798,17.75323 c -0.136682,0.197907 -0.274791,0.368761 -0.414322,0.508293 -0.142378,0.140955 -0.314658,0.279063 -0.511141,0.41717 -0.609381,0.484088 -1.289952,0.824374 -2.007543,1.022281 -3.701851,1.512065 -9.560745,2.587025 -9.560745,2.587025 0,0 1.073537,-5.857469 2.585601,-9.560746 0.197907,-0.719013 0.539616,-1.398161 1.023705,-2.008966 0.136684,-0.197907 0.274791,-0.370186 0.41717,-0.509717 0.139531,-0.140955 0.31181,-0.279063 0.508293,-0.415746 0.612229,-0.484089 1.289953,-0.825798 2.01039,-1.023705 3.701853,-1.512064 9.560746,-2.587025 9.560746,-2.587025 0,0 -1.076385,5.858893 -2.588449,9.562169 -0.197907,0.717591 -0.539616,1.396738 -1.023705,2.008967 z m -3.434179,-4.524803 c -0.556701,-0.556701 -1.456536,-0.556701 -2.013239,0 -0.556701,0.556703 -0.556701,1.456537 0,2.013239 0.556703,0.556702 1.456537,0.556702 2.013239,0 0.556702,-0.556701 0.556702,-1.456536 0,-2.013239 z"
     id="path2996"
     inkscape:connector-curvature="0"
     style="fill-rule:evenodd" /></svg>