<?xml version="1.0" encoding="UTF-8" standalone="no"?>
<!-- Generator: Adobe Illustrator 15.1.0, SVG Export Plug-In . SVG Version: 6.00 Build 0)  -->

<svg
   xmlns:dc="http://purl.org/dc/elements/1.1/"
   xmlns:cc="http://creativecommons.org/ns#"
   xmlns:rdf="http://www.w3.org/1999/02/22-rdf-syntax-ns#"
   xmlns:svg="http://www.w3.org/2000/svg"
   xmlns="http://www.w3.org/2000/svg"
   xmlns:sodipodi="http://sodipodi.sourceforge.net/DTD/sodipodi-0.dtd"
   xmlns:inkscape="http://www.inkscape.org/namespaces/inkscape"
   version="1.1"
   id="Layer_1"
   x="0px"
   y="0px"
   width="55"
   height="55"
   viewBox="0 0 55 55"
   enable-background="new 0 0 100 100"
   xml:space="preserve"
   inkscape:version="0.48.4 r9939"
   sodipodi:docname="Compass-East.svg"><metadata
     id="metadata3015"><rdf:RDF><cc:Work
         rdf:about=""><dc:format>image/svg+xml</dc:format><dc:type
           rdf:resource="http://purl.org/dc/dcmitype/StillImage" /></cc:Work></rdf:RDF></metadata><defs
     id="defs3013" /><sodipodi:namedview
     pagecolor="#ffffff"
     bordercolor="#666666"
     borderopacity="1"
     objecttolerance="10"
     gridtolerance="10"
     guidetolerance="10"
     inkscape:pageopacity="0"
     inkscape:pageshadow="2"
     inkscape:window-width="640"
     inkscape:window-height="480"
     id="namedview3011"
     showgrid="false"
     inkscape:zoom="2.36"
     inkscape:cx="-0.42372881"
     inkscape:cy="50"
     inkscape:window-x="0"
     inkscape:window-y="336"
     inkscape:window-maximized="0"
     inkscape:current-layer="Layer_1" /><g
     id="g3005"
     transform="matrix(1.4237591,0,0,1.4237591,-43.686531,-43.501443)"><g
       id="g3007"><path
         clip-rule="evenodd"
         d="m 50,35.87 c -7.732,0 -14,6.268 -14,13.998 0,7.732 6.268,14 14,14 7.73,0 13.998,-6.268 13.998,-14 C 63.998,42.137 57.73,35.87 50,35.87 z m 0,23.997 c -5.523,0 -10,-4.477 -10,-10 0,-5.521 4.477,-9.998 10,-9.998 5.521,0 9.998,4.477 9.998,9.998 0,5.524 -4.477,10 -9.998,10 z m 0,-13.998 c -2.209,0 -4,1.79 -4,3.999 0,2.208 1.791,4 4,4 2.207,0 7.998,-4 7.998,-4 0,0 -5.791,-3.999 -7.998,-3.999 z m 0,4.999 c -0.553,0 -1,-0.447 -1,-1 0,-0.552 0.447,-1 1,-1 0.551,0 0.998,0.448 0.998,1 0,0.552 -0.447,1 -0.998,1 z"
         id="path3009"
         inkscape:connector-curvature="0"
         style="fill-rule:evenodd" /></g></g></svg>