<?xml version="1.0" encoding="UTF-8" standalone="no"?>
<!-- Generator: Adobe Illustrator 15.1.0, SVG Export Plug-In . SVG Version: 6.00 Build 0)  -->

<svg
   xmlns:dc="http://purl.org/dc/elements/1.1/"
   xmlns:cc="http://creativecommons.org/ns#"
   xmlns:rdf="http://www.w3.org/1999/02/22-rdf-syntax-ns#"
   xmlns:svg="http://www.w3.org/2000/svg"
   xmlns="http://www.w3.org/2000/svg"
   xmlns:sodipodi="http://sodipodi.sourceforge.net/DTD/sodipodi-0.dtd"
   xmlns:inkscape="http://www.inkscape.org/namespaces/inkscape"
   version="1.1"
   id="Layer_1"
   x="0px"
   y="0px"
   width="55"
   height="55"
   viewBox="0 0 55 55"
   enable-background="new 0 0 100 100"
   xml:space="preserve"
   inkscape:version="0.48.4 r9939"
   sodipodi:docname="Degrees-Fahrenheit.svg"><metadata
     id="metadata3019"><rdf:RDF><cc:Work
         rdf:about=""><dc:format>image/svg+xml</dc:format><dc:type
           rdf:resource="http://purl.org/dc/dcmitype/StillImage" /></cc:Work></rdf:RDF></metadata><defs
     id="defs3017" /><sodipodi:namedview
     pagecolor="#ffffff"
     bordercolor="#666666"
     borderopacity="1"
     objecttolerance="10"
     gridtolerance="10"
     guidetolerance="10"
     inkscape:pageopacity="0"
     inkscape:pageshadow="2"
     inkscape:window-width="640"
     inkscape:window-height="480"
     id="namedview3015"
     showgrid="false"
     inkscape:zoom="2.36"
     inkscape:cx="-0.42372881"
     inkscape:cy="50"
     inkscape:window-x="0"
     inkscape:window-y="336"
     inkscape:window-maximized="0"
     inkscape:current-layer="Layer_1" /><path
     clip-rule="evenodd"
     d="m 40.4975,23.5005 c 0,-2.209 -1.791,-4 -4,-4 -2.209,0 -4,1.791 -4,4 v 3.999 h 8 v 4 h -8 v 7.999 h -3.998 v -7.999 -4 -3.999 c 0,-4.418 3.581,-7.999 7.999,-7.999 4.418,0 8,3.581 8,7.999 h -4.001 z m -22.998,5.999 c -3.865,0 -6.998,-3.134 -6.998,-6.999 0,-3.865 3.133,-6.999 6.998,-6.999 3.865,0 7,3.134 7,6.999 0,3.865 -3.134,6.999 -7,6.999 z m 0,-9.999 c -1.656,0 -2.999,1.344 -2.999,3 0,1.656 1.343,3 2.999,3 1.657,0 3,-1.344 3,-3 0,-1.656 -1.342,-3 -3,-3 z"
     id="path3013"
     inkscape:connector-curvature="0"
     style="fill-rule:evenodd" /></svg>