<?xml version="1.0" encoding="UTF-8" standalone="no"?>
<svg
   xmlns:dc="http://purl.org/dc/elements/1.1/"
   xmlns:cc="http://creativecommons.org/ns#"
   xmlns:rdf="http://www.w3.org/1999/02/22-rdf-syntax-ns#"
   xmlns:svg="http://www.w3.org/2000/svg"
   xmlns="http://www.w3.org/2000/svg"
   xmlns:sodipodi="http://sodipodi.sourceforge.net/DTD/sodipodi-0.dtd"
   xmlns:inkscape="http://www.inkscape.org/namespaces/inkscape"
   version="1.2"
   width="55"
   height="55"
   viewBox="0 0 55 55"
   id="svg2"
   inkscape:version="0.48.4 r9939"
   sodipodi:docname="lightbulb.svg">
  <metadata
     id="metadata12">
    <rdf:RDF>
      <cc:Work
         rdf:about="">
        <dc:format>image/svg+xml</dc:format>
        <dc:type
           rdf:resource="http://purl.org/dc/dcmitype/StillImage" />
        <dc:title></dc:title>
      </cc:Work>
    </rdf:RDF>
  </metadata>
  <defs
     id="defs10" />
  <sodipodi:namedview
     pagecolor="#ffffff"
     bordercolor="#666666"
     borderopacity="1"
     objecttolerance="10"
     gridtolerance="10"
     guidetolerance="10"
     inkscape:pageopacity="0"
     inkscape:pageshadow="2"
     inkscape:window-width="1920"
     inkscape:window-height="1056"
     id="namedview8"
     showgrid="false"
     inkscape:zoom="9.8333333"
     inkscape:cx="14.135593"
     inkscape:cy="20.135593"
     inkscape:window-x="1366"
     inkscape:window-y="24"
     inkscape:window-maximized="1"
     inkscape:current-layer="svg2" />
  <g
     id="g4"
     transform="matrix(2.5060533,0,0,2.5060533,-4.0726394,-1.4213076)">
    <path
       d="M 12.5,5.5 C 12.224,5.5 12,5.724 12,6 c 0,0.276 0.224,0.5 0.5,0.5 1.083,0 1.964,0.881 1.964,1.964 0,0.276 0.224,0.5 0.5,0.5 0.276,0 0.5,-0.224 0.5,-0.5 C 15.464,6.83 14.134,5.5 12.5,5.5 z M 12.5,1 C 8.364,1 5,4.364 5,8.5 5,9.986 5.44,11.422 6.274,12.665 L 6.354,12.8 C 8.179,15.406 8.5,16.23 8.5,17 v 3 c 0,0.552 0.448,1 1,1 h 2 c 0,0.26 0.11,0.52 0.29,0.71 0.19,0.18 0.45,0.29 0.71,0.29 0.26,0 0.52,-0.11 0.71,-0.29 0.18,-0.19 0.29,-0.45 0.29,-0.71 h 2 c 0.552,0 1,-0.448 1,-1 v -3 c 0,-0.782 0.319,-1.61 2.132,-4.199 C 19.527,11.526 20,10.039 20,8.5 20,4.364 16.636,1 12.5,1 z m 2,18 h -4 v -1 h 4 v 1 z m 2.495,-7.347 C 15.529,13.746 14.852,14.942 14.61,16 H 13.5 v -2 c 0,-0.552 -0.448,-1 -1,-1 -0.552,0 -1,0.448 -1,1 v 2 H 10.387 C 10.147,14.97 9.489,13.8 8.081,11.78 L 8.004,11.651 C 7.347,10.717 7,9.627 7,8.5 7,5.467 9.467,3 12.5,3 15.533,3 18,5.467 18,8.5 c 0,1.126 -0.347,2.216 -1.005,3.153 z"
       id="path6"
       inkscape:connector-curvature="0" />
  </g>
</svg>
