<?xml version="1.0" encoding="UTF-8" standalone="no"?>
<svg
   xmlns:dc="http://purl.org/dc/elements/1.1/"
   xmlns:cc="http://creativecommons.org/ns#"
   xmlns:rdf="http://www.w3.org/1999/02/22-rdf-syntax-ns#"
   xmlns:svg="http://www.w3.org/2000/svg"
   xmlns="http://www.w3.org/2000/svg"
   xmlns:sodipodi="http://sodipodi.sourceforge.net/DTD/sodipodi-0.dtd"
   xmlns:inkscape="http://www.inkscape.org/namespaces/inkscape"
   version="1.2"
   width="55"
   height="55"
   viewBox="0 0 55 55"
   id="svg2"
   inkscape:version="0.48.4 r9939"
   sodipodi:docname="lightbulb_on.svg">
  <metadata
     id="metadata12">
    <rdf:RDF>
      <cc:Work
         rdf:about="">
        <dc:format>image/svg+xml</dc:format>
        <dc:type
           rdf:resource="http://purl.org/dc/dcmitype/StillImage" />
        <dc:title />
      </cc:Work>
    </rdf:RDF>
  </metadata>
  <defs
     id="defs10" />
  <sodipodi:namedview
     pagecolor="#ffffff"
     bordercolor="#666666"
     borderopacity="1"
     objecttolerance="10"
     gridtolerance="10"
     guidetolerance="10"
     inkscape:pageopacity="0"
     inkscape:pageshadow="2"
     inkscape:window-width="1920"
     inkscape:window-height="1056"
     id="namedview8"
     showgrid="false"
     inkscape:zoom="9.8333333"
     inkscape:cx="12"
     inkscape:cy="15.738092"
     inkscape:window-x="1366"
     inkscape:window-y="24"
     inkscape:window-maximized="1"
     inkscape:current-layer="g4" />
  <g
     id="g4"
     transform="translate(0,31)">
    <path
       d="m 27.115015,-18.354721 c -0.690334,0 -1.250605,0.560271 -1.250605,1.250605 0,0.690335 0.560271,1.250606 1.250605,1.250606 2.708811,0 4.912378,2.203566 4.912378,4.912378 0,0.690334 0.560271,1.2506046 1.250605,1.2506046 0.690334,0 1.250605,-0.5602706 1.250605,-1.2506046 0,-4.086979 -3.32661,-7.413589 -7.413588,-7.413589 z m 0,-11.255448 c -10.345007,0 -18.7590833,8.414073 -18.7590833,18.75908 0,3.7167981 1.1005327,7.3085371 3.1865443,10.41754122 l 0.200097,0.33766406 C 16.307284,6.4222711 17.110172,8.4832681 17.110172,10.409202 v 7.503632 c 0,1.380668 1.120543,2.50121 2.501211,2.50121 h 5.002421 c 0,0.650315 0.275133,1.30063 0.725351,1.77586 0.47523,0.450218 1.125545,0.725351 1.77586,0.725351 0.650315,0 1.300629,-0.275133 1.77586,-0.725351 0.450217,-0.47523 0.725351,-1.125545 0.725351,-1.77586 h 5.002421 c 1.380668,0 2.501211,-1.120542 2.501211,-2.50121 v -7.503632 c 0,-1.9559479 0.797886,-4.0269499 5.332581,-10.50258472 2.238583,-3.18904318 3.421656,-6.90834418 3.421656,-10.75770628 0,-10.345007 -8.414073,-18.75908 -18.75908,-18.75908 z m 5.002421,45.021792 H 22.112594 v -2.501211 h 10.004842 v 2.501211 z m 6.240521,-18.3763959 c -3.666775,5.235034 -5.360095,8.226482 -5.965388,10.872763 h -2.776343 v -5.002421 c 0,-1.3806689 -1.120543,-2.50121082 -2.501211,-2.50121082 -1.380668,0 -2.501211,1.12054192 -2.501211,2.50121082 v 5.002421 H 21.829957 C 21.229666,5.3317431 19.58387,2.4053271 16.062165,-2.6471189 l -0.192593,-0.322656 c -1.643296,-2.336131 -2.511216,-5.06245 -2.511216,-7.8813141 0,-7.586172 6.170487,-13.756659 13.756659,-13.756659 7.586172,0 13.756659,6.170487 13.756659,13.756659 0,2.8163621 -0.867921,5.5426821 -2.513717,7.8863161 z"
       id="path6"
       inkscape:connector-curvature="0" />
    <path
       style="fill:#ffff00;fill-opacity:1"
       d="M 21.626798,6.7676081 C 21.090309,5.1117341 19.869203,2.8704841 17.573231,-0.67243282 14.846801,-4.8795919 14.366646,-5.8144569 13.88671,-7.8501079 12.074394,-15.537047 17.558569,-23.345466 25.446715,-24.309354 c 7.78301,-0.951041 14.702404,4.830611 15.194207,12.695853 0.231362,3.7000331 -0.477819,5.6391671 -4.025491,11.00707718 -2.115139,3.20037692 -3.477543,5.69916892 -4.020499,7.37403192 -0.301866,0.931166 -0.338999,0.953852 -1.561295,0.953852 l -1.252076,0 0,-2.527046 c 0,-1.389875 -0.107452,-2.80966 -0.238791,-3.15508 -0.870059,-2.28842484 -3.993956,-2.28842484 -4.864014,0 -0.131339,0.34542 -0.238791,1.765205 -0.238791,3.15508 l 0,2.527046 -1.252073,0 c -1.22233,0 -1.25942,-0.02276 -1.561119,-0.953852 l 0,0 z M 34.214699,-9.9747571 c 0.221257,-0.2212689 0.399708,-0.8255799 0.399708,-1.3536709 0,-3.346872 -3.086946,-6.651815 -6.60189,-7.068108 -1.460279,-0.172949 -2.300724,0.311483 -2.300724,1.326134 0,0.767059 0.542418,1.160799 1.965329,1.426627 0.658339,0.122992 1.616215,0.501057 2.128615,0.840147 0.989402,0.654755 2.010706,2.418181 2.010706,3.471769 0,1.4459558 1.474836,2.2805211 2.398256,1.3571019 z"
       id="path2989"
       inkscape:connector-curvature="0" />
  </g>
</svg>
