<?xml version="1.0" encoding="UTF-8" standalone="no"?>
<!-- Generator: Adobe Illustrator 18.1.1, SVG Export Plug-In . SVG Version: 6.00 Build 0)  -->

<svg
   xmlns:dc="http://purl.org/dc/elements/1.1/"
   xmlns:cc="http://creativecommons.org/ns#"
   xmlns:rdf="http://www.w3.org/1999/02/22-rdf-syntax-ns#"
   xmlns:svg="http://www.w3.org/2000/svg"
   xmlns="http://www.w3.org/2000/svg"
   xmlns:sodipodi="http://sodipodi.sourceforge.net/DTD/sodipodi-0.dtd"
   xmlns:inkscape="http://www.inkscape.org/namespaces/inkscape"
   version="1.1"
   id="Capa_1"
   x="0px"
   y="0px"
   viewBox="0 0 55 55"
   xml:space="preserve"
   inkscape:version="0.48.4 r9939"
   width="100%"
   height="100%"
   sodipodi:docname="nav_back.svg"><metadata
     id="metadata3103"><rdf:RDF><cc:Work
         rdf:about=""><dc:format>image/svg+xml</dc:format><dc:type
           rdf:resource="http://purl.org/dc/dcmitype/StillImage" /></cc:Work></rdf:RDF></metadata><defs
     id="defs3101" /><sodipodi:namedview
     pagecolor="#ffffff"
     bordercolor="#666666"
     borderopacity="1"
     objecttolerance="10"
     gridtolerance="10"
     guidetolerance="10"
     inkscape:pageopacity="0"
     inkscape:pageshadow="2"
     inkscape:window-width="1920"
     inkscape:window-height="1056"
     id="namedview3099"
     showgrid="false"
     inkscape:zoom="1.1907525"
     inkscape:cx="-6.7184407"
     inkscape:cy="99.097"
     inkscape:window-x="1366"
     inkscape:window-y="24"
     inkscape:window-maximized="1"
     inkscape:current-layer="Capa_1" /><g
     id="g3065"
     transform="matrix(0.2602423,0,0,0.22901654,1.35922,4.7668709)"><path
       style="fill:#010002"
       d="m 132.447,46.884 h -88.02 l 7.267,-7.267 c 4.531,-4.531 4.531,-11.873 0,-16.41 -4.531,-4.531 -11.873,-4.531 -16.41,0 L 8.214,50.277 C 8.209,50.282 8.203,50.282 8.203,50.282 L 0,58.491 8.202,66.688 c 0,0 0.005,0.005 0.011,0.016 L 37.214,95.7 c 2.268,2.268 5.238,3.399 8.202,3.399 2.975,0 5.939,-1.131 8.208,-3.399 4.531,-4.531 4.531,-11.873 0,-16.41 l -9.197,-9.197 h 88.02 c 23.459,0 42.544,19.091 42.544,42.544 0,23.453 -19.091,42.544 -42.544,42.544 H 16.421 c -6.413,0 -11.607,5.194 -11.607,11.602 0,6.407 5.194,11.602 11.607,11.602 h 116.026 c 36.257,0 65.747,-29.496 65.747,-65.747 0,-36.251 -29.491,-65.754 -65.747,-65.754 z"
       id="path3067"
       inkscape:connector-curvature="0" /></g><g
     id="g3069"
     transform="translate(0,-143.19455)" /><g
     id="g3071"
     transform="translate(0,-143.19455)" /><g
     id="g3073"
     transform="translate(0,-143.19455)" /><g
     id="g3075"
     transform="translate(0,-143.19455)" /><g
     id="g3077"
     transform="translate(0,-143.19455)" /><g
     id="g3079"
     transform="translate(0,-143.19455)" /><g
     id="g3081"
     transform="translate(0,-143.19455)" /><g
     id="g3083"
     transform="translate(0,-143.19455)" /><g
     id="g3085"
     transform="translate(0,-143.19455)" /><g
     id="g3087"
     transform="translate(0,-143.19455)" /><g
     id="g3089"
     transform="translate(0,-143.19455)" /><g
     id="g3091"
     transform="translate(0,-143.19455)" /><g
     id="g3093"
     transform="translate(0,-143.19455)" /><g
     id="g3095"
     transform="translate(0,-143.19455)" /><g
     id="g3097"
     transform="translate(0,-143.19455)" /></svg>