<?xml version="1.0" encoding="UTF-8" standalone="no"?>
<svg
   xmlns:dc="http://purl.org/dc/elements/1.1/"
   xmlns:cc="http://creativecommons.org/ns#"
   xmlns:rdf="http://www.w3.org/1999/02/22-rdf-syntax-ns#"
   xmlns:svg="http://www.w3.org/2000/svg"
   xmlns="http://www.w3.org/2000/svg"
   xmlns:sodipodi="http://sodipodi.sourceforge.net/DTD/sodipodi-0.dtd"
   xmlns:inkscape="http://www.inkscape.org/namespaces/inkscape"
   height="55"
   id="Layer_1"
   version="1.1"
   viewBox="0 0 55 55"
   width="55"
   xml:space="preserve"
   inkscape:version="0.48.4 r9939"
   sodipodi:docname="1443138821_menu-alt.svg"><metadata
     id="metadata9"><rdf:RDF><cc:Work
         rdf:about=""><dc:format>image/svg+xml</dc:format><dc:type
           rdf:resource="http://purl.org/dc/dcmitype/StillImage" /></cc:Work></rdf:RDF></metadata><defs
     id="defs7" /><sodipodi:namedview
     pagecolor="#ffffff"
     bordercolor="#666666"
     borderopacity="1"
     objecttolerance="10"
     gridtolerance="10"
     guidetolerance="10"
     inkscape:pageopacity="0"
     inkscape:pageshadow="2"
     inkscape:window-width="925"
     inkscape:window-height="716"
     id="namedview5"
     showgrid="false"
     inkscape:zoom="7.375"
     inkscape:cx="16"
     inkscape:cy="32.271186"
     inkscape:window-x="10"
     inkscape:window-y="336"
     inkscape:window-maximized="0"
     inkscape:current-layer="Layer_1" /><path
     d="M 5.7142857,15.285714 H 50.285714 C 52.336,15.285714 54,13.621714 54,11.571429 54,9.521143 52.336,7.857143 50.285714,7.857143 H 5.7142857 C 3.664,7.857143 2,9.521143 2,11.571429 c 0,2.050285 1.664,3.714285 3.7142857,3.714285 z M 50.285714,22.714286 H 5.7142857 C 3.664,22.714286 2,24.378286 2,26.428571 c 0,2.050286 1.664,3.714286 3.7142857,3.714286 H 50.285714 C 52.336,30.142857 54,28.478857 54,26.428571 54,24.378286 52.336,22.714286 50.285714,22.714286 z m 0,14.857143 H 5.7142857 C 3.664,37.571429 2,39.235429 2,41.285714 2,43.336 3.664,45 5.7142857,45 H 50.285714 C 52.336,45 54,43.336 54,41.285714 54,39.235429 52.336,37.571429 50.285714,37.571429 z"
     id="path3"
     inkscape:connector-curvature="0" /></svg>