<?xml version="1.0" encoding="UTF-8" standalone="no"?>
<!-- Generator: Adobe Illustrator 15.1.0, SVG Export Plug-In . SVG Version: 6.00 Build 0)  -->

<svg
   xmlns:dc="http://purl.org/dc/elements/1.1/"
   xmlns:cc="http://creativecommons.org/ns#"
   xmlns:rdf="http://www.w3.org/1999/02/22-rdf-syntax-ns#"
   xmlns:svg="http://www.w3.org/2000/svg"
   xmlns="http://www.w3.org/2000/svg"
   xmlns:sodipodi="http://sodipodi.sourceforge.net/DTD/sodipodi-0.dtd"
   xmlns:inkscape="http://www.inkscape.org/namespaces/inkscape"
   version="1.1"
   id="Layer_1"
   x="0px"
   y="0px"
   width="55"
   height="55"
   viewBox="0 0 55 55"
   enable-background="new 0 0 100 100"
   xml:space="preserve"
   inkscape:version="0.48.4 r9939"
   sodipodi:docname="Thermometer-75.svg"><metadata
     id="metadata3011"><rdf:RDF><cc:Work
         rdf:about=""><dc:format>image/svg+xml</dc:format><dc:type
           rdf:resource="http://purl.org/dc/dcmitype/StillImage" /></cc:Work></rdf:RDF></metadata><defs
     id="defs3009" /><sodipodi:namedview
     pagecolor="#ffffff"
     bordercolor="#666666"
     borderopacity="1"
     objecttolerance="10"
     gridtolerance="10"
     guidetolerance="10"
     inkscape:pageopacity="0"
     inkscape:pageshadow="2"
     inkscape:window-width="1366"
     inkscape:window-height="744"
     id="namedview3007"
     showgrid="false"
     inkscape:zoom="2.36"
     inkscape:cx="-0.42372881"
     inkscape:cy="50"
     inkscape:window-x="0"
     inkscape:window-y="336"
     inkscape:window-maximized="1"
     inkscape:current-layer="Layer_1" /><path
     clip-rule="evenodd"
     d="m 27.501,45.498 c -4.418,0 -8,-3.582 -8,-8 0,-2.025 0.76,-3.869 2,-5.279 V 15.502 c 0,-3.313 2.687,-6 6,-6 3.312,0 5.999,2.687 5.999,6 v 16.717 c 1.241,1.41 1.999,3.254 1.999,5.279 0,4.418 -3.58,8 -7.998,8 z m 2,-11.445 V 29.762 19.5 15.501 c 0,-1.104 -0.896,-2 -2,-2 -1.104,0 -2,0.896 -2,2 v 3.999 10.262 4.291 c -1.19,0.693 -2,1.969 -2,3.445 0,2.209 1.791,4 4,4 2.209,0 3.999,-1.791 3.999,-4 0,-1.476 -0.81,-2.752 -1.999,-3.445 z m -2,6.445 c -1.656,0 -3,-1.344 -3,-3 0,-1.305 0.838,-2.402 2,-2.816 V 19.438 h 2 v 15.244 c 1.162,0.414 2,1.512 2,2.816 0,1.656 -1.344,3 -3,3 z"
     id="path3005"
     inkscape:connector-curvature="0"
     style="fill-rule:evenodd;fill:#ff6600" /></svg>