<?xml version="1.0" encoding="UTF-8" standalone="no"?>
<!-- Generator: Adobe Illustrator 15.1.0, SVG Export Plug-In . SVG Version: 6.00 Build 0)  -->

<svg
   xmlns:dc="http://purl.org/dc/elements/1.1/"
   xmlns:cc="http://creativecommons.org/ns#"
   xmlns:rdf="http://www.w3.org/1999/02/22-rdf-syntax-ns#"
   xmlns:svg="http://www.w3.org/2000/svg"
   xmlns="http://www.w3.org/2000/svg"
   xmlns:sodipodi="http://sodipodi.sourceforge.net/DTD/sodipodi-0.dtd"
   xmlns:inkscape="http://www.inkscape.org/namespaces/inkscape"
   version="1.1"
   id="Layer_1"
   x="0px"
   y="0px"
   width="55"
   height="55"
   viewBox="0 0 55 55"
   enable-background="new 0 0 100 100"
   xml:space="preserve"
   inkscape:version="0.48.4 r9939"
   sodipodi:docname="Tornado.svg"><metadata
     id="metadata2993"><rdf:RDF><cc:Work
         rdf:about=""><dc:format>image/svg+xml</dc:format><dc:type
           rdf:resource="http://purl.org/dc/dcmitype/StillImage" /></cc:Work></rdf:RDF></metadata><defs
     id="defs2991" /><sodipodi:namedview
     pagecolor="#ffffff"
     bordercolor="#666666"
     borderopacity="1"
     objecttolerance="10"
     gridtolerance="10"
     guidetolerance="10"
     inkscape:pageopacity="0"
     inkscape:pageshadow="2"
     inkscape:window-width="640"
     inkscape:window-height="480"
     id="namedview2989"
     showgrid="false"
     inkscape:zoom="2.36"
     inkscape:cx="-0.42372881"
     inkscape:cy="50"
     inkscape:window-x="0"
     inkscape:window-y="336"
     inkscape:window-maximized="0"
     inkscape:current-layer="Layer_1" /><path
     clip-rule="evenodd"
     d="M 46.4975,13.5015 H 8.5025 c -1.104,0 -2,-0.896 -2,-1.999 0,-1.104 0.896,-2 2,-2 h 37.995 c 1.104,0 2,0.896 2,2 0,1.103 -0.895,1.999 -2,1.999 z m -35.995,4 h 29.996 c 1.104,0 2,0.896 2,2 0,1.104 -0.896,1.999 -2,1.999 h -29.996 c -1.104,0 -2,-0.896 -2,-1.999 0,-1.105 0.896,-2 2,-2 z m 11.998,7.999 h 21.998 c 1.104,0 1.999,0.896 1.999,1.999 0,1.104 -0.895,2 -1.999,2 h -21.998 c -1.104,0 -1.999,-0.896 -1.999,-2 0,-1.103 0.895,-1.999 1.999,-1.999 z m 2,15.998 h 5.999 c 1.104,0 2,0.896 2,1.999 0,1.104 -0.896,2 -2,2 h -5.999 c -1.104,0 -2,-0.896 -2,-2 0,-1.103 0.896,-1.999 2,-1.999 z m 1,-6 c 0,-1.104 0.896,-1.999 2,-1.999 h 13.998 c 1.104,0 2,0.896 2,1.999 0,1.104 -0.896,2 -2,2 h -13.998 c -1.104,0 -2,-0.895 -2,-2 z"
     id="path2987"
     inkscape:connector-curvature="0"
     style="fill-rule:evenodd" /></svg>