<?xml version="1.0" encoding="UTF-8" standalone="no"?>
<!-- Generator: Adobe Illustrator 15.1.0, SVG Export Plug-In . SVG Version: 6.00 Build 0)  -->

<svg
   xmlns:dc="http://purl.org/dc/elements/1.1/"
   xmlns:cc="http://creativecommons.org/ns#"
   xmlns:rdf="http://www.w3.org/1999/02/22-rdf-syntax-ns#"
   xmlns:svg="http://www.w3.org/2000/svg"
   xmlns="http://www.w3.org/2000/svg"
   xmlns:sodipodi="http://sodipodi.sourceforge.net/DTD/sodipodi-0.dtd"
   xmlns:inkscape="http://www.inkscape.org/namespaces/inkscape"
   version="1.1"
   id="Layer_1"
   x="0px"
   y="0px"
   width="55"
   height="55"
   viewBox="0 0 55 55"
   enable-background="new 0 0 100 100"
   xml:space="preserve"
   inkscape:version="0.48.4 r9939"
   sodipodi:docname="Wind.svg"><metadata
     id="metadata3665"><rdf:RDF><cc:Work
         rdf:about=""><dc:format>image/svg+xml</dc:format><dc:type
           rdf:resource="http://purl.org/dc/dcmitype/StillImage" /></cc:Work></rdf:RDF></metadata><defs
     id="defs3663" /><sodipodi:namedview
     pagecolor="#ffffff"
     bordercolor="#666666"
     borderopacity="1"
     objecttolerance="10"
     gridtolerance="10"
     guidetolerance="10"
     inkscape:pageopacity="0"
     inkscape:pageshadow="2"
     inkscape:window-width="1920"
     inkscape:window-height="1056"
     id="namedview3661"
     showgrid="false"
     inkscape:zoom="2.36"
     inkscape:cx="-0.42372881"
     inkscape:cy="50"
     inkscape:window-x="1366"
     inkscape:window-y="24"
     inkscape:window-maximized="1"
     inkscape:current-layer="Layer_1" /><path
     clip-rule="evenodd"
     d="m 43.499,29.499 0,0 h -3 c -1.105,0 -2,-0.895 -2,-1.999 0,-1.104 0.895,-2 2,-2 h 3 c 1.104,0 2,-0.896 2,-1.999 0,-1.105 -0.896,-2 -2,-2 -1.105,0 -2,-0.896 -2,-2 0,-1.104 0.895,-2 2,-2 0.137,0 0.271,0.014 0.402,0.041 3.121,0.211 5.596,2.783 5.596,5.959 0,3.312 -2.685,5.998 -5.998,5.998 z m -10,-3.999 h -2 -6.998 -12.999 c -1.104,0 -1.9990002,0.896 -1.9990002,2 0,1.104 0.8950002,1.999 1.9990002,1.999 h 2 3.999 3 4 3 3.998 2 c 3.314,0 6,2.687 6,6 0,3.176 -2.475,5.748 -5.596,5.959 -0.131,0.027 -0.265,0.041 -0.404,0.041 -1.104,0 -2,-0.896 -2,-2 0,-1.105 0.896,-2 2,-2 1.105,0 2,-0.896 2,-2 0,-1.104 -0.895,-2 -2,-2 h -2 -3.998 -3 -4 -3 -3.999 -2 c -3.3130002,0 -5.9990002,-2.686 -5.9990002,-5.999 0,-3.175 2.475,-5.747 5.5960002,-5.959 0.131,-0.026 0.266,-0.04 0.403,-0.04 l 0,0 h 12.999 6.998 2 c 1.105,0 2,-0.896 2,-2 0,-1.104 -0.895,-2 -2,-2 -1.104,0 -2,-0.895 -2,-2 0,-1.104 0.896,-2 2,-2 0.139,0 0.273,0.015 0.404,0.041 3.121,0.211 5.596,2.783 5.596,5.959 0,3.312 -2.686,5.999 -6,5.999 z"
     id="path3659"
     inkscape:connector-curvature="0"
     style="fill-rule:evenodd" /></svg>